<svg id="Capa_1" enable-background="new 0 0 512 512" height="512" viewBox="0 0 512 512" width="512" xmlns="http://www.w3.org/2000/svg"><g><g><path d="m145.546 119.24v348.683c0 20.201 16.376 36.577 36.577 36.577h252.178c20.201 0 36.577-16.376 36.577-36.577v-348.683c0-20.201-16.376-36.577-36.577-36.577h-252.178c-20.201 0-36.577 16.376-36.577 36.577z" fill="#d2d2d7"/></g><g><path d="m434.302 82.663h-43.893c20.201 0 36.577 16.376 36.577 36.577v348.682c0 20.201-16.376 36.577-36.577 36.577h43.893c20.201 0 36.577-16.376 36.577-36.577v-348.682c0-20.201-16.376-36.577-36.577-36.577z" fill="#b9b9be"/></g><g><path d="m41.121 44.077v348.683c0 20.201 16.376 36.577 36.577 36.577h252.178c20.201 0 36.577-16.376 36.577-36.577v-253.397c0-13.256-5.266-25.969-14.64-35.343l-81.88-81.88c-9.373-9.374-22.086-14.64-35.342-14.64h-156.893c-20.201 0-36.577 16.376-36.577 36.577z" fill="#b2e5fb"/></g><g><path d="m321.694 130.148c.566 3.018.868 6.1.868 9.215v253.397c0 20.201-16.376 36.577-36.577 36.577h43.892c20.201 0 36.577-16.376 36.577-36.577v-253.397c0-3.115-.301-6.197-.868-9.215z" fill="#91dafa"/></g><g><path d="m245.214 7.5v84.663c0 20.2 16.376 36.577 36.577 36.577h84.663z" fill="#fcf5f5"/></g><g><path d="m245.214 7.5v43.893l77.347 77.347h43.893z" fill="#ebe1dc"/></g><g><path d="m470.879 406.837c4.142 0 7.5-3.357 7.5-7.5v-280.097c0-24.305-19.773-44.077-44.077-44.077h-100.738l-58.327-58.326c-10.856-10.858-25.291-16.837-40.646-16.837h-112.247c-4.142 0-7.5 3.357-7.5 7.5s3.358 7.5 7.5 7.5h112.247c1.048 0 2.088.05 3.123.125v77.038c0 24.305 19.773 44.077 44.077 44.077h77.037c.075 1.035.125 2.075.125 3.123v253.397c0 16.033-13.044 29.077-29.077 29.077h-252.178c-16.033 0-29.077-13.044-29.077-29.077v-348.683c0-16.033 13.044-29.077 29.077-29.077h14.646c4.142 0 7.5-3.357 7.5-7.5s-3.357-7.5-7.5-7.5h-14.646c-24.304 0-44.077 19.772-44.077 44.077v348.683c0 24.305 19.773 44.077 44.077 44.077h60.348v31.086c0 24.305 19.773 44.077 44.077 44.077h252.178c24.304 0 44.077-19.772 44.077-44.077v-38.586c0-4.143-3.358-7.5-7.5-7.5s-7.5 3.357-7.5 7.5v38.586c0 16.033-13.044 29.077-29.077 29.077h-252.178c-16.033 0-29.077-13.044-29.077-29.077v-31.086h176.831c24.304 0 44.077-19.772 44.077-44.077v-253.397c0-15.354-5.979-29.789-16.836-40.647l-8.553-8.553h85.737c16.033 0 29.077 13.044 29.077 29.077v280.097c0 4.142 3.358 7.5 7.5 7.5zm-189.088-285.597c-16.033 0-29.077-13.044-29.077-29.077v-73.127c4.37 2.063 8.398 4.888 11.916 8.407l81.88 81.879c3.519 3.519 6.344 7.547 8.407 11.918z"/><path d="m133.569 214.766h140.438c4.142 0 7.5-3.357 7.5-7.5s-3.358-7.5-7.5-7.5h-140.438c-4.142 0-7.5 3.357-7.5 7.5 0 4.142 3.358 7.5 7.5 7.5z"/><path d="m133.569 276.199h140.438c4.142 0 7.5-3.357 7.5-7.5s-3.358-7.5-7.5-7.5h-140.438c-4.142 0-7.5 3.357-7.5 7.5s3.358 7.5 7.5 7.5z"/><path d="m133.569 337.633h70.219c4.142 0 7.5-3.357 7.5-7.5s-3.358-7.5-7.5-7.5h-70.219c-4.142 0-7.5 3.357-7.5 7.5 0 4.142 3.358 7.5 7.5 7.5z"/></g></g></svg>