<svg fill="none" height="24" viewBox="0 0 24 24" width="24" xmlns="http://www.w3.org/2000/svg"><path clip-rule="evenodd" d="m19.874 9c-.4441 1.7252-2.0102 3-3.874 3s-3.4299-1.2748-3.874-3h-9.126c-.55228 0-1-.44771-1-1s.44772-1 1-1h9.126c.4441-1.72523 2.0102-3 3.874-3s3.4299 1.27477 3.874 3h1.126c.5523 0 1 .44772 1 1s-.4477 1-1 1zm-1.874-1c0-1.10457-.8954-2-2-2s-2 .89543-2 2 .8954 2 2 2 2-.89543 2-2zm-10 4c-1.86384 0-3.42994 1.2748-3.87398 3h-1.12602c-.55228 0-1 .4477-1 1s.44771 1 1 1h1.12602c.44404 1.7252 2.01014 3 3.87398 3s3.4299-1.2748 3.874-3h9.126c.5523 0 1-.4477 1-1s-.4477-1-1-1h-9.126c-.4441-1.7252-2.01016-3-3.874-3zm0 6c-1.10457 0-2-.8954-2-2s.89543-2 2-2 2 .8954 2 2-.89543 2-2 2z" fill="#000" fill-rule="evenodd"/></svg>
