<?xml version="1.0"?>
<svg xmlns="http://www.w3.org/2000/svg" id="Layer_1" data-name="Layer 1" viewBox="0 0 64 64"><path d="M61.944,35.092a.937.937,0,0,0-.073-.189c-.013-.024-.014-.051-.029-.075s-.049-.046-.071-.073a1.008,1.008,0,0,0-.143-.149.941.941,0,0,0-.156-.1.983.983,0,0,0-.169-.074.955.955,0,0,0-.2-.041.81.81,0,0,0-.1-.02c-.028,0-.051.014-.078.016a.954.954,0,0,0-.2.04,1.049,1.049,0,0,0-.184.072c-.025.014-.053.015-.077.03l-3.791,2.429a3.13,3.13,0,0,1-3.7-.228,5.158,5.158,0,0,0-6.2-.283l-.789.544a3.155,3.155,0,0,1-3.568-.006l-1.638-1.133a5.146,5.146,0,0,0-5.95.069l-1.246.906a3.125,3.125,0,0,1-3.731-.027l-.913-.685a5.144,5.144,0,0,0-6.274.081l-.879.7a3.121,3.121,0,0,1-3.539.245L16.4,36.053a5.116,5.116,0,0,0-5.766.38l-.37.29a3.158,3.158,0,0,1-3.78.064l-2.895-2.1a.868.868,0,0,0-.1-.045.894.894,0,0,0-.186-.085.938.938,0,0,0-.195-.04A1,1,0,0,0,3,34.49a.641.641,0,0,0-.076.016.964.964,0,0,0-.2.039,1.044,1.044,0,0,0-.175.064.9.9,0,0,0-.152.1.919.919,0,0,0-.152.14c-.017.019-.04.029-.056.05a.862.862,0,0,0-.044.1.856.856,0,0,0-.125.383A.966.966,0,0,0,2,35.49V58.641a1,1,0,0,0,1,1H61a1,1,0,0,0,1-1V35.367c0-.028-.014-.052-.016-.08A1.008,1.008,0,0,0,61.944,35.092ZM4,46.71l1.307.95a5.167,5.167,0,0,0,6.186-.1l.371-.29a3.127,3.127,0,0,1,3.523-.233l1.842,1.081a5.106,5.106,0,0,0,5.792-.4l.879-.7a3.145,3.145,0,0,1,3.833-.05l.913.684a5.114,5.114,0,0,0,6.108.045L36,46.79a3.144,3.144,0,0,1,3.634-.042l1.638,1.134a5.169,5.169,0,0,0,5.84.009l.789-.543a3.146,3.146,0,0,1,3.788.172,5.124,5.124,0,0,0,6.06.374L60,46.451V53.52H4ZM11.494,38.3l.37-.289a3.125,3.125,0,0,1,3.523-.233l1.842,1.081a5.106,5.106,0,0,0,5.792-.4l.879-.7a3.145,3.145,0,0,1,3.833-.05l.913.685a5.114,5.114,0,0,0,6.108.044L36,37.534a3.142,3.142,0,0,1,3.634-.042l1.638,1.134a5.169,5.169,0,0,0,5.84.009l.79-.544a3.147,3.147,0,0,1,3.787.173,5.124,5.124,0,0,0,6.06.374L60,37.2v6.881L56.669,46.21a3.131,3.131,0,0,1-3.7-.229,5.161,5.161,0,0,0-6.2-.282l-.789.544a3.155,3.155,0,0,1-3.568-.006L40.772,45.1a5.144,5.144,0,0,0-5.949.069l-1.246.906a3.125,3.125,0,0,1-3.731-.027l-.913-.685a5.143,5.143,0,0,0-6.274.081l-.879.7a3.121,3.121,0,0,1-3.539.245L16.4,45.309a5.118,5.118,0,0,0-5.765.379l-.371.291a3.158,3.158,0,0,1-3.78.064L4,44.237V37.454l1.307.95A5.167,5.167,0,0,0,11.494,38.3ZM4,57.641V55.52H60v2.121Z"/><path d="M8.81,18.749a8.554,8.554,0,0,0,8.54,8.55,8.859,8.859,0,0,0,1.009-.064,4.733,4.733,0,0,0,3.883,2.036H34.68a4.744,4.744,0,0,0,4.738-4.74,4.686,4.686,0,0,0-.862-2.719,6.167,6.167,0,0,0,.862-3.148,6.309,6.309,0,0,0-6.3-6.3,6.229,6.229,0,0,0-4.368,1.787,6.271,6.271,0,0,0-4.471-.383A8.53,8.53,0,0,0,8.81,18.749Zm19.585-2.5a1,1,0,0,0,1.345-.214,4.281,4.281,0,1,1,6.774,5.237A1,1,0,0,0,36.6,22.59a2.734,2.734,0,0,1-1.923,4.681H22.242a2.734,2.734,0,0,1-1.008-5.278,1,1,0,0,0,.6-1.162,4.239,4.239,0,0,1-.133-1.009,4.3,4.3,0,0,1,6.7-3.574ZM17.35,12.2a6.55,6.55,0,0,1,5.082,2.435A6.3,6.3,0,0,0,19.7,19.822a5.485,5.485,0,0,0,.044.692,4.572,4.572,0,0,0-2.165,4.774c-.077,0-.152.011-.229.011a6.55,6.55,0,0,1,0-13.1Z"/><path d="M18.355,8.359v-3a1,1,0,1,0-2,0v3a1,1,0,0,0,2,0Z"/><path d="M25.407,12.108l2.121-2.121a1,1,0,0,0-1.414-1.414l-2.121,2.121a1,1,0,1,0,1.414,1.414Z"/><path d="M16.355,29.134v3a1,1,0,0,0,2,0v-3a1,1,0,0,0-2,0Z"/><path d="M9.3,25.384,7.182,27.505A1,1,0,1,0,8.6,28.919L10.717,26.8A1,1,0,0,0,9.3,25.384Z"/><path d="M2.968,18.746a1,1,0,0,0,1,1h3a1,1,0,0,0,0-2h-3A1,1,0,0,0,2.968,18.746Z"/><path d="M8.6,8.573A1,1,0,0,0,7.182,9.987L9.3,12.108a1,1,0,0,0,1.414-1.414Z"/></svg>

