<svg viewBox="0 0 32 32" xmlns="http://www.w3.org/2000/svg"><g id="_10._md_Markdown_" data-name="10. md (Markdown)"><path d="m28 19.5h-2.5v-9.5s0 0 0-.07 0 0 0-.06a.4.4 0 0 0 -.12-.22l-7-7a.5.5 0 0 0 -.22-.13h-10.16a1.5 1.5 0 0 0 -1.5 1.48v15.5h-2.5a1.5 1.5 0 0 0 -1.5 1.5v7a1.5 1.5 0 0 0 1.5 1.5h24a1.5 1.5 0 0 0 1.5-1.5v-7a1.5 1.5 0 0 0 -1.5-1.5zm-9.5-15.29 5.29 5.29h-5.29zm-11-.21a.5.5 0 0 1 .5-.5h9.5v6.5a.5.5 0 0 0 .5.5h6.5v9h-17zm21 24a.5.5 0 0 1 -.5.5h-24a.5.5 0 0 1 -.5-.5v-7a.5.5 0 0 1 .5-.5h24a.5.5 0 0 1 .5.5z" fill="#1a3a5e"/><g fill="#87ceeb"><path d="m17.5 21.5h-.5a.5.5 0 0 0 -.5.5v5a.5.5 0 0 0 .5.5h.5a3 3 0 0 0 0-6zm0 5v-4a2 2 0 0 1 0 4z"/><path d="m15.5 23v4a.5.5 0 0 1 -1 0v-4a.5.5 0 0 0 -.5-.5h-.5v4.5a.5.5 0 0 1 -1 0v-4.5h-.5a.5.5 0 0 0 -.5.5v4a.5.5 0 0 1 -1 0v-4a1.5 1.5 0 0 1 1.5-1.5h2a1.5 1.5 0 0 1 1.5 1.5z"/><path d="m13.5 12a.5.5 0 0 1 -.5.5h-4a.5.5 0 0 1 0-1h4a.5.5 0 0 1 .5.5z"/><path d="m14.5 9a.5.5 0 0 1 -.5.5h-5a.5.5 0 0 1 0-1h5a.5.5 0 0 1 .5.5z"/><path d="m15.5 6a.5.5 0 0 1 -.5.5h-6a.5.5 0 0 1 0-1h6a.5.5 0 0 1 .5.5z"/></g></g></svg>