<svg id="Capa_1" enable-background="new 0 0 428 428" height="512" viewBox="0 0 428 428" width="512" xmlns="http://www.w3.org/2000/svg"><g><g id="Design_33_"><path d="m360.146 208.78h-83.512c-14.406 0-26.098 11.692-26.098 26.098v15.659h-31.317v-73.073h36.537c12.683 0 24.453-4.932 33.092-13.806 8.951-8.717 13.884-20.487 13.884-33.17 0-25.915-21.061-46.976-46.976-46.976h-12.605c10.778-8.612 17.825-21.713 17.825-36.537 0-25.914-21.061-46.975-46.976-46.975s-46.976 21.061-46.976 46.976c0 14.823 7.046 27.924 17.825 36.537h-12.605c-12.683 0-24.453 4.932-33.092 13.806-8.951 8.717-13.884 20.513-13.884 33.17 0 25.915 21.061 46.976 46.976 46.976h36.537v73.073h-31.317v-15.659c0-14.406-11.692-26.098-26.098-26.098h-83.512c-14.406 0-26.098 11.692-26.098 26.098v41.756c0 14.406 11.692 26.098 26.098 26.098h36.537v57.415c0 14.406 11.692 26.098 26.098 26.098h120.049v15.659c0 14.406 11.692 26.098 26.098 26.098h83.512c14.406 0 26.098-11.692 26.098-26.098v-41.756c0-14.406-11.692-26.098-26.098-26.098h-36.538v-31.317h36.537c14.406 0 26.098-11.692 26.098-26.098v-41.756c-.001-14.382-11.693-26.1-26.099-26.1zm-182.683-161.804c0-20.147 16.389-36.537 36.537-36.537s36.537 16.389 36.537 36.537-16.39 36.536-36.537 36.536-36.537-16.389-36.537-36.536zm-41.756 83.512c0-9.839 3.81-18.947 10.83-25.81 6.733-6.916 15.867-10.726 25.706-10.726h83.512c20.147 0 36.537 16.389 36.537 36.537 0 9.839-3.81 18.973-10.83 25.81-6.733 6.916-15.867 10.726-25.706 10.726h-83.512c-20.147-.001-36.537-16.39-36.537-36.537zm-83.512 146.146v-41.756c0-8.638 7.02-15.659 15.659-15.659h83.512c8.638 0 15.659 7.02 15.659 15.659v41.756c0 8.638-7.02 15.659-15.659 15.659h-83.512c-8.639 0-15.659-7.021-15.659-15.659zm323.61 83.512v41.756c0 8.638-7.02 15.659-15.659 15.659h-83.512c-8.638 0-15.659-7.02-15.659-15.659v-41.756c0-8.638 7.02-15.659 15.659-15.659h83.512c8.639.001 15.659 7.021 15.659 15.659zm-62.634-26.097h-36.537c-14.406 0-26.098 11.692-26.098 26.098v15.659h-120.048c-8.638 0-15.659-7.02-15.659-15.659v-57.415h36.537c14.406 0 26.098-11.692 26.098-26.098v-15.659h73.073v15.659c0 14.406 11.692 26.098 26.098 26.098h36.537v31.317zm62.634-57.415c0 8.638-7.02 15.659-15.659 15.659h-83.512c-8.638 0-15.659-7.02-15.659-15.659v-41.756c0-8.638 7.02-15.659 15.659-15.659h83.512c8.638 0 15.659 7.02 15.659 15.659z"/><path d="m135.707 255.756c0-2.897-2.323-5.219-5.22-5.219h-41.755c-2.897 0-5.22 2.323-5.22 5.219 0 2.897 2.323 5.22 5.22 5.22h41.756c2.897 0 5.219-2.323 5.219-5.22z"/><path d="m339.268 250.537h-41.756c-2.897 0-5.22 2.323-5.22 5.219 0 2.897 2.323 5.22 5.22 5.22h41.756c2.897 0 5.22-2.323 5.22-5.22s-2.323-5.219-5.22-5.219z"/><path d="m292.293 381.024c0 2.897 2.323 5.22 5.22 5.22h41.756c2.897 0 5.22-2.323 5.22-5.22s-2.323-5.22-5.22-5.22h-41.756c-2.898.001-5.22 2.35-5.22 5.22z"/><path d="m381.024 83.512h-41.756c-2.897 0-5.22 2.323-5.22 5.22s2.323 5.22 5.22 5.22h41.756c2.897 0 5.22-2.323 5.22-5.22s-2.323-5.22-5.22-5.22z"/><path d="m381.024 125.268h-41.756c-2.897 0-5.22 2.323-5.22 5.22s2.323 5.22 5.22 5.22h41.756c2.897 0 5.22-2.323 5.22-5.22 0-2.871-2.323-5.22-5.22-5.22z"/></g></g></svg>