<svg height="512pt" viewBox="-16 0 512 512" width="512pt" xmlns="http://www.w3.org/2000/svg"><path d="m8 56c-4.425781 0-8-3.585938-8-8 0-26.472656 21.527344-48 48-48 4.425781 0 8 3.585938 8 8s-3.574219 8-8 8c-17.648438 0-32 14.351562-32 32 0 4.414062-3.574219 8-8 8zm0 0"/><path d="m392 56c-4.425781 0-8-3.585938-8-8 0-17.648438-14.351562-32-32-32s-32 14.351562-32 32c0 4.414062-3.574219 8-8 8s-8-3.585938-8-8c0-26.472656 21.527344-48 48-48s48 21.527344 48 48c0 4.414062-3.574219 8-8 8zm0 0"/><path d="m352 16h-304c-4.425781 0-8-3.585938-8-8s3.574219-8 8-8h304c4.425781 0 8 3.585938 8 8s-3.574219 8-8 8zm0 0"/><path d="m312 56h-304c-4.425781 0-8-3.585938-8-8s3.574219-8 8-8h304c4.425781 0 8 3.585938 8 8s-3.574219 8-8 8zm0 0"/><path d="m128 480c-26.472656 0-48-21.527344-48-48 0-4.425781 3.574219-8 8-8s8 3.574219 8 8c0 17.648438 14.351562 32 32 32 4.425781 0 8 3.574219 8 8s-3.574219 8-8 8zm0 0"/><path d="m432 480c-26.472656 0-48-21.527344-48-48 0-4.425781 3.574219-8 8-8s8 3.574219 8 8c0 17.648438 14.351562 32 32 32s32-14.351562 32-32c0-4.425781 3.574219-8 8-8s8 3.574219 8 8c0 26.472656-21.527344 48-48 48zm0 0"/><path d="m288 480h-160c-4.425781 0-8-3.574219-8-8s3.574219-8 8-8h160c4.425781 0 8 3.574219 8 8s-3.574219 8-8 8zm0 0"/><path d="m392 440c-4.425781 0-8-3.574219-8-8v-384c0-4.414062 3.574219-8 8-8s8 3.585938 8 8v384c0 4.425781-3.574219 8-8 8zm0 0"/><path d="m88 440c-4.425781 0-8-3.574219-8-8v-384c0-4.414062 3.574219-8 8-8s8 3.585938 8 8v384c0 4.425781-3.574219 8-8 8zm0 0"/><path d="m472 440h-80c-4.425781 0-8-3.574219-8-8s3.574219-8 8-8h80c4.425781 0 8 3.574219 8 8s-3.574219 8-8 8zm0 0"/><path d="m312 464c-7.550781 0-14.617188-3.105469-19.703125-8.496094-7.601563.160156-14.625-2.648437-19.898437-7.917968-5.335938-5.328126-8.125-12.507813-7.917969-19.90625-5.375-5.09375-8.480469-12.152344-8.480469-19.6875 0-7.535157 3.105469-14.59375 8.480469-19.6875-.199219-7.394532 2.589843-14.5625 7.917969-19.898438 5.289062-5.285156 12.679687-8.214844 19.90625-7.917969 5.09375-5.382812 12.160156-8.488281 19.695312-8.488281s14.601562 3.105469 19.6875 8.488281c7.527344-.25 14.640625 2.625 19.914062 7.910157 5.328126 5.328124 8.125 12.503906 7.917969 19.90625 5.382813 5.09375 8.480469 12.152343 8.480469 19.6875 0 7.535156-3.097656 14.601562-8.480469 19.695312.199219 7.390625-2.589843 14.570312-7.910156 19.898438-5.128906 5.125-11.9375 7.933593-19.195313 7.933593-.238281 0-.484374 0-.71875-.007812-5.09375 5.382812-12.160156 8.488281-19.695312 8.488281zm-16.183594-24.9375c2.695313 0 5.253906 1.371094 6.75 3.707031 4.167969 6.542969 14.699219 6.550781 18.882813-.007812 1.816406-2.832031 5.199219-4.21875 8.480469-3.503907.8125.183594 1.65625.269532 2.496093.269532 2.980469 0 5.78125-1.152344 7.871094-3.238282 2.695313-2.703124 3.808594-6.570312 2.960937-10.359374-.730468-3.28125.671876-6.671876 3.503907-8.480469 3.277343-2.097657 5.238281-5.632813 5.238281-9.457031 0-3.824219-1.960938-7.34375-5.230469-9.433594-2.832031-1.816406-4.242187-5.191406-3.511719-8.488282.839844-3.789062-.265624-7.671874-2.96875-10.375-2.671874-2.671874-6.601562-3.792968-10.359374-2.953124-3.265626.730468-6.65625-.671876-8.480469-3.503907-4.183594-6.558593-14.707031-6.558593-18.890625 0-1.816406 2.832031-5.183594 4.226563-8.480469 3.503907-3.710937-.855469-7.679687.289062-10.367187 2.96875-2.6875 2.695312-3.808594 6.570312-2.957032 10.359374.726563 3.289063-.683594 6.671876-3.515625 8.488282-3.277343 2.089844-5.238281 5.609375-5.238281 9.433594 0 3.824218 1.960938 7.351562 5.238281 9.449218 2.832031 1.804688 4.234375 5.191406 3.503907 8.480469-.839844 3.789063.265624 7.664063 2.960937 10.359375 2.671875 2.671875 6.585937 3.816406 10.394531 2.976562.574219-.128906 1.140625-.195312 1.71875-.195312zm0 0"/><path d="m312.246094 431.503906c-13.09375 0-23.75-10.65625-23.75-23.75 0-13.097656 10.664062-23.753906 23.75-23.753906 13.089844 0 23.753906 10.65625 23.753906 23.753906 0 13.09375-10.65625 23.75-23.753906 23.75zm0-31.503906c-4.269532 0-7.75 3.480469-7.75 7.753906 0 4.269532 3.480468 7.75 7.75 7.75 4.273437 0 7.753906-3.480468 7.753906-7.75 0-4.273437-3.480469-7.753906-7.753906-7.753906zm0 0"/><path d="m288 512c-4.425781 0-8-3.574219-8-8v-56.832031c0-4.425781 3.574219-8 8-8s8 3.574219 8 8v56.832031c0 4.425781-3.574219 8-8 8zm0 0"/><path d="m336 512c-4.425781 0-8-3.574219-8-8v-56.832031c0-4.425781 3.574219-8 8-8s8 3.574219 8 8v56.832031c0 4.425781-3.574219 8-8 8zm0 0"/><path d="m288 512c-3.351562 0-6.472656-2.121094-7.585938-5.472656-1.398437-4.191406.867188-8.726563 5.058594-10.121094l24-8c4.230469-1.398438 8.71875.867188 10.121094 5.058594 1.398438 4.191406-.867188 8.726562-5.058594 10.121094l-24 8c-.847656.277343-1.703125.414062-2.535156.414062zm0 0"/><path d="m336 512c-.832031 0-1.6875-.136719-2.527344-.414062l-24-8c-4.183594-1.394532-6.457031-5.921876-5.058594-10.121094 1.402344-4.183594 5.882813-6.457032 10.121094-5.058594l24 8c4.183594 1.394531 6.457032 5.921875 5.058594 10.121094-1.121094 3.351562-4.242188 5.472656-7.59375 5.472656zm0 0"/><path d="m432 480h-96c-4.425781 0-8-3.574219-8-8s3.574219-8 8-8h96c4.425781 0 8 3.574219 8 8s-3.574219 8-8 8zm0 0"/><path d="m336 296.160156h-192c-4.425781 0-8-3.574218-8-8 0-4.425781 3.574219-8 8-8h192c4.425781 0 8 3.574219 8 8 0 4.425782-3.574219 8-8 8zm0 0"/><path d="m240.128906 328.183594h-96.128906c-4.425781 0-8-3.574219-8-8 0-4.421875 3.574219-8 8-8h96.128906c4.421875 0 8 3.578125 8 8 0 4.425781-3.585937 8-8 8zm0 0"/><path d="m336 264.128906h-192c-4.425781 0-8-3.585937-8-8 0-4.417968 3.574219-8 8-8h192c4.425781 0 8 3.582032 8 8 0 4.414063-3.574219 8-8 8zm0 0"/><path d="m336 232.113281h-192c-4.425781 0-8-3.585937-8-8 0-4.417969 3.574219-8 8-8h192c4.425781 0 8 3.582031 8 8 0 4.414063-3.574219 8-8 8zm0 0"/><path d="m208.128906 176.128906h-64c-4.425781 0-8-3.585937-8-8 0-4.417968 3.574219-8 8-8h64c4.421875 0 8 3.582032 8 8 0 4.414063-3.585937 8-8 8zm0 0"/><path d="m176.128906 176.128906c-4.425781 0-8-3.585937-8-8v-72c0-4.417968 3.574219-8 8-8 4.421875 0 8 3.582032 8 8v72c0 4.414063-3.585937 8-8 8zm0 0"/><path d="m208.128906 112.128906h-64c-4.425781 0-8-3.585937-8-8 0-4.417968 3.574219-8 8-8h64c4.421875 0 8 3.582032 8 8 0 4.414063-3.585937 8-8 8zm0 0"/><path d="m216.128906 136.128906h-16c-4.425781 0-8-3.585937-8-8 0-4.417968 3.574219-8 8-8h16c4.421875 0 8 3.582032 8 8 0 4.414063-3.585937 8-8 8zm0 0"/><path d="m152.128906 136.128906h-16c-4.425781 0-8-3.585937-8-8 0-4.417968 3.574219-8 8-8h16c4.421875 0 8 3.582032 8 8 0 4.414063-3.585937 8-8 8zm0 0"/></svg>