<svg fill="none" height="24" viewBox="0 0 24 24" width="24" xmlns="http://www.w3.org/2000/svg" xmlns:xlink="http://www.w3.org/1999/xlink"><linearGradient id="paint0_linear_2543_4371" gradientUnits="userSpaceOnUse" x1="0" x2="22.884" y1=".045" y2="24.02"><stop offset=".0833333" stop-color="#ff6a6a"/><stop offset="1" stop-color="#f72257"/></linearGradient><path d="m1 4c0-1.65685 1.34315-3 3-3h3.75736c.79565 0 1.55871.31607 2.12132.87868l2.12132 2.12132h8c1.6569 0 3 1.34315 3 3v12c0 1.6569-1.3431 3-3 3h-16c-1.65685 0-3-1.3431-3-3z" fill="url(#paint0_linear_2543_4371)"/><path d="m1 4c0-1.65685 1.34315-3 3-3h3.75736c.79565 0 1.55871.31607 2.12132.87868l2.12132 2.12132h8c1.6569 0 3 1.34315 3 3v3c0-1.10457-.8954-2-2-2h-10.8513c-1.06696 0-2.05367.56673-2.5913 1.48839l-6.28195 10.76911c-.1768-.3825-.27545-.8085-.27545-1.2575z" fill="#850026"/></svg>