<svg id="Layer_2" height="512" viewBox="0 0 24 24" width="512" xmlns="http://www.w3.org/2000/svg"><g fill="rgb(0,0,0)"><path d="m21 4c-.5527 0-1 .4478-1 1v1.0035c-1.8568-2.4704-4.8015-4.0035-8-4.0035-4.7021 0-8.7129 3.1987-9.7529 7.7783-.1221.5386.2158 1.0747.7539 1.1968.0752.0171.1494.0249.2226.0249.4561 0 .8691-.3145.9746-.7783.8311-3.6631 4.0401-6.2217 7.8018-6.2217 2.8846 0 5.5016 1.5655 6.9143 4h-1.9143c-.5527 0-1 .4478-1 1s.4473 1 1 1h4c.5527 0 1-.4478 1-1v-4c0-.5522-.4473-1-1-1z"/><path d="m3 20c.5527 0 1-.4478 1-1v-1.0252c1.8668 2.5102 4.7882 4.0252 8 4.0252 4.7021 0 8.7129-3.1987 9.7529-7.7783.1221-.5386-.2158-1.0747-.7539-1.1968-.5439-.1255-1.0752.2148-1.1973.7534-.831 3.6631-4.04 6.2217-7.8017 6.2217-2.8856 0-5.478-1.5275-6.9081-4h1.9081c.5527 0 1-.4478 1-1s-.4473-1-1-1h-4c-.5527 0-1 .4478-1 1v4c0 .5522.4473 1 1 1z"/></g></svg>