<svg id="Layer_15" viewBox="0 0 24 24" xmlns="http://www.w3.org/2000/svg" data-name="Layer 15"><path d="m21.71 20.29c-.1-.1-6.69-6.68-6.27-6.26l-6.46-6.47c-.14-.14-5.61-5.61-5.27-5.27-.39-.39-1.03-.39-1.42 0s-.39 1.03 0 1.42l1 1c-.19.39-.29.83-.29 1.29v10.32l5.63-2.25c.37-.15.79-.06 1.08.22l1.44 1.45 1.98-1.19 1.46 1.46-3.08 1.85c-.39.23-.89.17-1.22-.15l-1.53-1.54-5.72 2.29c.22 1.44 1.47 2.54 2.96 2.54h12c.46 0 .9-.1 1.29-.29l1 1c.2.19.45.29.71.29s.51-.1.71-.29c.39-.39.39-1.03 0-1.42zm-12.71-9.29c-1.1 0-2-.9-2-2 0-.18.02-.35.07-.51l2.44 2.44c-.16.05-.33.07-.51.07zm0-7c0-.55.45-1 1-1h8c1.65 0 3 1.35 3 3v8c0 .55-.45 1-1 1s-1-.45-1-1v-8c0-.55-.45-1-1-1h-8c-.55 0-1-.45-1-1z"/></svg>