<svg id="Layer_1" height="512" viewBox="0 0 512 512" width="512" xmlns="http://www.w3.org/2000/svg" data-name="Layer 1"><path d="m222.35 179.953c-.013-.183-.019-.366-.019-.55 0-21.085 16.938-32.117 33.669-32.117s33.668 11.032 33.668 32.117c0 .184-.007.367-.019.55l-9.747 141.515c-.156 14.868-12.102 22.645-23.902 22.645s-23.745-7.776-23.903-22.644zm279.763 267.927c-12.136 21.421-33.985 34.209-58.449 34.209h-375.329c-24.463 0-46.312-12.788-58.448-34.208s-11.874-46.735.7-67.719l191.67-319.856c11.405-19.032 31.496-30.396 53.742-30.396s42.337 11.363 53.742 30.396l191.671 319.856c12.574 20.983 12.836 46.299.7 67.718zm-443.341-38.843c-2.103 3.509-2.164 7.711-.164 11.241 2.001 3.531 5.637 5.639 9.728 5.639h375.328c4.091 0 7.727-2.107 9.728-5.639 2-3.53 1.939-7.732-.163-11.242l-191.672-319.856s0 0 0 0c-1.693-2.828-4.449-3.133-5.556-3.133-1.106 0-3.863.306-5.558 3.133zm197.228-55.475c-15.697 0-28.468 12.77-28.468 28.466s12.771 28.467 28.468 28.467 28.467-12.771 28.467-28.467-12.771-28.466-28.467-28.466z"/></svg>