<svg id="Capa_1" enable-background="new 0 0 32 32" height="512" viewBox="0 0 32 32" width="512" xmlns="http://www.w3.org/2000/svg"><path d="m28 7h-24c-2.201 0-3 1.794-3 3v12c0 2.201 1.794 3 3 3h24c2.201 0 3-1.794 3-3v-12c0-2.201-1.794-3-3-3zm1 14.988c-.012.462-.194 1.012-1 1.012h-23.988c-.462-.012-1.012-.194-1.012-1v-11.988c.012-.462.195-1.012 1-1.012h23.988c.462.012 1.012.195 1.012 1zm-20-2.988h14v2h-14zm16 0h2v2h-2zm0-4h2v2h-2zm-4 0h2v2h-2zm-2 2h-2v-2h2zm-4 0h-2v-2h2zm-4 0h-2v-2h2zm-6-2h2v2h-2zm0 4h2v2h-2zm20-8h2v2h-2zm-4 0h2v2h-2zm-2 2h-2v-2h2zm-4 0h-2v-2h2zm-4 0h-2v-2h2zm-6-2h2v2h-2z"/></svg>