<svg id="Layer_1" enable-background="new 0 0 48 48" height="512" viewBox="0 0 48 48" width="512" xmlns="http://www.w3.org/2000/svg"><path id="XMLID_958_" d="m.88 16.598 9.992 9.992c1.164 1.164 3.051 1.164 4.215 0s1.164-3.052 0-4.216l-3.037-3.037c20.384-1.003 33.639 12.679 33.762 26.703.004.507.716.61.874.144 4.922-14.579-4.03-32.89-27.427-36.201-2.266-.295-4.558-.519-6.868-.681l2.697-2.697c1.164-1.164 1.164-3.052 0-4.215-1.164-1.164-3.051-1.165-4.215 0l-9.993 9.993c-1.164 1.163-1.164 3.051 0 4.215z" fill="#54bbff"/></svg>