<?xml version="1.0"?>
<svg xmlns="http://www.w3.org/2000/svg" viewBox="0 0 64 64" width="512" height="512"><g id="_03_LOG" data-name="03 LOG"><path d="M62,11H51V9a8.009,8.009,0,0,0-8-8H6A5.006,5.006,0,0,0,1,6v8a1,1,0,0,0,1,1H9V58a5.006,5.006,0,0,0,5,5H50a5.006,5.006,0,0,0,5-5V56a1,1,0,0,0-1-1H51V37H62a1,1,0,0,0,1-1V12A1,1,0,0,0,62,11ZM9,13H3V6A3,3,0,0,1,9,6ZM53,58a3,3,0,0,1-3,3H18a4.98,4.98,0,0,0,1-3V57H53Zm-4-3H18a1,1,0,0,0-1,1v2a3,3,0,0,1-6,0V6A4.948,4.948,0,0,0,9.974,3H43a6.006,6.006,0,0,1,6,6v2H18a1,1,0,0,0-1,1V36a1,1,0,0,0,1,1H49ZM61,35H19V13H61Z"/><path d="M32,29H27V18a1,1,0,0,0-2,0V30a1,1,0,0,0,1,1h6a1,1,0,0,0,0-2Z"/><path d="M39,17a5.006,5.006,0,0,0-5,5v4a5,5,0,0,0,10,0V22A5.006,5.006,0,0,0,39,17Zm3,9a3,3,0,0,1-6,0V22a3,3,0,0,1,6,0Z"/><path d="M46,21v5.5a4.5,4.5,0,0,0,9,0V25a1,1,0,0,0-1-1H51a1,1,0,0,0,0,2h2v.5a2.5,2.5,0,0,1-5,0V21a2,2,0,0,1,2-2h1a2,2,0,0,1,2,2,1,1,0,0,0,2,0,4,4,0,0,0-4-4H50A4,4,0,0,0,46,21Z"/></g></svg>
