<svg height="512" viewBox="0 0 32 32" width="512" xmlns="http://www.w3.org/2000/svg" xmlns:xlink="http://www.w3.org/1999/xlink"><linearGradient id="linear-gradient" gradientUnits="userSpaceOnUse" x1="16" x2="16" y1="-.167" y2="32.5"><stop offset="0" stop-color="#b621fe"/><stop offset="1" stop-color="#1fd1f9"/></linearGradient><g id="eye" fill="url(#linear-gradient)" fill-rule="evenodd"><path d="m25.8 1.25h-19.6a4.952 4.952 0 0 0 -4.95 4.95v19.6a4.952 4.952 0 0 0 4.95 4.95h19.6a4.952 4.952 0 0 0 4.95-4.95v-19.6a4.952 4.952 0 0 0 -4.95-4.95zm3.45 24.55a3.452 3.452 0 0 1 -3.45 3.45h-19.6a3.452 3.452 0 0 1 -3.45-3.45v-19.6a3.452 3.452 0 0 1 3.45-3.45h19.6a3.452 3.452 0 0 1 3.45 3.45z"/><path d="m26.67 14.96a21.868 21.868 0 0 0 -5.022-4.813 10.394 10.394 0 0 0 -5.648-1.897 10.394 10.394 0 0 0 -5.648 1.9 21.922 21.922 0 0 0 -5.023 4.812l-.007.011a1.737 1.737 0 0 0 0 2.06l.008.01a21.868 21.868 0 0 0 5.022 4.813 10.394 10.394 0 0 0 5.648 1.894 10.394 10.394 0 0 0 5.648-1.9 21.922 21.922 0 0 0 5.023-4.812l.007-.011a1.737 1.737 0 0 0 0-2.06zm-1.194 1.173a20.244 20.244 0 0 1 -4.654 4.467 8.885 8.885 0 0 1 -4.822 1.65 8.885 8.885 0 0 1 -4.822-1.65 20.22 20.22 0 0 1 -4.649-4.462.24.24 0 0 1 -.005-.272 20.245 20.245 0 0 1 4.654-4.466 8.884 8.884 0 0 1 4.822-1.65 8.884 8.884 0 0 1 4.822 1.65 20.22 20.22 0 0 1 4.649 4.462.24.24 0 0 1 .005.271z"/><path d="m16 11.75a4.25 4.25 0 1 0 4.25 4.25 4.252 4.252 0 0 0 -4.25-4.25zm0 7a2.75 2.75 0 1 1 2.75-2.75 2.751 2.751 0 0 1 -2.75 2.75z"/></g></svg>