<svg height="512" viewBox="0 0 24 24" width="512" xmlns="http://www.w3.org/2000/svg"><g id="_01" data-name="01"><path d="m7.771 24a6.084 6.084 0 0 1 -4.978-9.573q.106-.151.219-.294a2.181 2.181 0 0 1 -.5-1.048l-.675-3.829c-.661-3.756 1.184-6.386 4.936-7.047l6.845-1.209a8.452 8.452 0 0 1 1.443-.131c2.994 0 5.037 1.847 5.605 5.067l1.51 8.558c.661 3.752-1.184 6.387-4.936 7.048l-3.533.623-.23.007a2.153 2.153 0 0 1 -1.084-.293 6.044 6.044 0 0 1 -3.56 2.028 6.111 6.111 0 0 1 -1.062.093z" fill="#1a1a1a" opacity=".2"/><path d="m7.771 23.131a6.084 6.084 0 0 1 -4.978-9.573q.106-.151.219-.294a2.181 2.181 0 0 1 -.5-1.048l-.675-3.829c-.661-3.752 1.184-6.387 4.936-7.047l6.845-1.208a8.452 8.452 0 0 1 1.443-.132c2.994 0 5.037 1.847 5.605 5.067l1.51 8.558c.661 3.752-1.184 6.387-4.936 7.048l-3.533.623-.23.006a2.152 2.152 0 0 1 -1.084-.292 6.044 6.044 0 0 1 -3.56 2.028 6.111 6.111 0 0 1 -1.062.093z" fill="#f2f2f2"/><path d="m13.921 1.844-6.847 1.207c-3 .528-3.978 2.467-3.525 5.034l.675 3.827a.428.428 0 0 0 .639.3 5.64 5.64 0 0 1 8.216 6.769.43.43 0 0 0 .477.578l3.383-.6c3-.528 3.977-2.466 3.525-5.034l-1.51-8.558c-.454-2.567-2.038-4.051-5.033-3.523zm3.233 5.828-1.711.3a2.388 2.388 0 0 1 -2.769-1.938l-.3-1.712a.652.652 0 0 1 1.282-.222l.3 1.712a1.087 1.087 0 0 0 1.258.881l1.712-.3a.652.652 0 0 1 .226 1.284zm-10.132 5.1a4.346 4.346 0 1 0 5.034 3.525 4.347 4.347 0 0 0 -5.034-3.53zm.229 5.492a.563.563 0 0 1 -.645.923l-1.739-1.223a.562.562 0 0 1 -.138-.784l1.217-1.739a.563.563 0 0 1 .922.646l-.894 1.278zm3.574-1.346-1.218 1.734a.563.563 0 1 1 -.922-.645l.895-1.278-1.28-.895a.563.563 0 0 1 .646-.922l1.739 1.217a.564.564 0 0 1 .14.784z" fill="#50b36f"/></g></svg>