<svg fill="none" height="24" viewBox="0 0 24 24" width="24" xmlns="http://www.w3.org/2000/svg"><g fill="rgb(0,0,0)"><path clip-rule="evenodd" d="m7 2c-1.65685 0-3 1.34315-3 3v14c0 1.6569 1.34315 3 3 3h10c1.6569 0 3-1.3431 3-3v-10h-6c-.5523 0-1-.44772-1-1v-6zm8.7071 11.7071c.3905-.3905.3905-1.0237 0-1.4142s-1.0237-.3905-1.4142 0l-3.2929 3.2929-1.29289-1.2929c-.39053-.3905-1.02369-.3905-1.41422 0-.39052.3905-.39052 1.0237 0 1.4142l2.00001 2c.3905.3905 1.0237.3905 1.4142 0z" fill-rule="evenodd"/><path d="m19.1213 6.70711c.0925.09246.1783.19034.2571.29289h-4.3784v-4.37843c.1025.07884.2004.16464.2929.25711z"/></g></svg>