<svg fill="none" height="24" viewBox="0 0 24 24" width="24" xmlns="http://www.w3.org/2000/svg"><g clip-rule="evenodd" fill="rgb(0,0,0)" fill-rule="evenodd"><path d="m8.25 10c0-.41421.33579-.75.75-.75h10c.4142 0 .75.33579.75.75v4c0 .4142-.3358.75-.75.75h-10c-.41421 0-.75-.3358-.75-.75zm1.5.75v2.5h8.5v-2.5z"/><path d="m8.25 3c0-.41421.33579-.75.75-.75h7c.4142 0 .75.33579.75.75v4c0 .41421-.3358.75-.75.75h-7c-.41421 0-.75-.33579-.75-.75zm1.5.75v2.5h5.5v-2.5z"/><path d="m8.25 17c0-.4142.33579-.75.75-.75h13c.4142 0 .75.3358.75.75v4c0 .4142-.3358.75-.75.75h-13c-.41421 0-.75-.3358-.75-.75zm1.5.75v2.5h11.5v-2.5z"/><path d="m1.75 5c0-.41421.33579-.75.75-.75h6c.41421 0 .75.33579.75.75s-.33579.75-.75.75h-6c-.41421 0-.75-.33579-.75-.75z"/><path d="m1.75 12c0-.4142.33579-.75.75-.75h6c.41421 0 .75.3358.75.75s-.33579.75-.75.75h-6c-.41421 0-.75-.3358-.75-.75z"/><path d="m1.75 19c0-.4142.33579-.75.75-.75h6c.41421 0 .75.3358.75.75s-.33579.75-.75.75h-6c-.41421 0-.75-.3358-.75-.75z"/><path d="m2.5 1.25c.41421 0 .75.33579.75.75v20c0 .4142-.33579.75-.75.75s-.75-.3358-.75-.75v-20c0-.41421.33579-.75.75-.75z"/></g></svg>