<svg fill="none" height="512" viewBox="0 0 24 24" width="512" xmlns="http://www.w3.org/2000/svg"><g clip-rule="evenodd" fill="rgb(0,0,0)" fill-rule="evenodd"><path d="m6 12c0-.5523.44772-1 1-1h10c.5523 0 1 .4477 1 1s-.4477 1-1 1h-10c-.55228 0-1-.4477-1-1z"/><path d="m7 4c.55228 0 1 .44772 1 1v14c0 .5523-.44772 1-1 1s-1-.4477-1-1v-14c0-.55228.44772-1 1-1z"/><path d="m17 4c.5523 0 1 .44772 1 1v14c0 .5523-.4477 1-1 1s-1-.4477-1-1v-14c0-.55228.4477-1 1-1z"/><path d="m14 19c0-.5523.4477-1 1-1h4c.5523 0 1 .4477 1 1s-.4477 1-1 1h-4c-.5523 0-1-.4477-1-1z"/><path d="m14 5c0-.55228.4477-1 1-1h4c.5523 0 1 .44772 1 1s-.4477 1-1 1h-4c-.5523 0-1-.44772-1-1z"/><path d="m4 19c0-.5523.44772-1 1-1h4c.55228 0 1 .4477 1 1s-.44772 1-1 1h-4c-.55228 0-1-.4477-1-1z"/><path d="m4 5c0-.55228.44772-1 1-1h4c.55228 0 1 .44772 1 1s-.44772 1-1 1h-4c-.55228 0-1-.44772-1-1z"/></g></svg>