<?xml version="1.0" encoding="UTF-8" standalone="no"?>
<!-- Created with Inkscape (http://www.inkscape.org/) -->

<svg
   version="1.1"
   id="svg1128"
   xml:space="preserve"
   width="682.66669"
   height="682.66669"
   viewBox="0 0 682.66669 682.66669"
   xmlns="http://www.w3.org/2000/svg"
   xmlns:svg="http://www.w3.org/2000/svg"><defs
     id="defs1132"><clipPath
       clipPathUnits="userSpaceOnUse"
       id="clipPath1154"><path
         d="M 0,512 H 512 V 0 H 0 Z"
         id="path1152" /></clipPath></defs><g
     id="g1134"
     transform="matrix(1.3333333,0,0,-1.3333333,0,682.66667)"><g
       id="g1136"
       transform="translate(127.041,318.6817)"><path
         d="M 0,0 V 63.044 H 257.918 V 0"
         style="fill:none;stroke:#000000;stroke-width:30;stroke-linecap:butt;stroke-linejoin:miter;stroke-miterlimit:10;stroke-dasharray:none;stroke-opacity:1"
         id="path1138" /></g><g
       id="g1140"
       transform="translate(256,381.7261)"><path
         d="M 0,0 V -256.523"
         style="fill:none;stroke:#000000;stroke-width:30;stroke-linecap:butt;stroke-linejoin:miter;stroke-miterlimit:10;stroke-dasharray:none;stroke-opacity:1"
         id="path1142" /></g><g
       id="g1144"
       transform="translate(202.0986,125.2032)"><path
         d="M 0,0 H 107.803"
         style="fill:none;stroke:#000000;stroke-width:30;stroke-linecap:butt;stroke-linejoin:miter;stroke-miterlimit:10;stroke-dasharray:none;stroke-opacity:1"
         id="path1146" /></g><g
       id="g1148"><g
         id="g1150"
         clip-path="url(#clipPath1154)"><g
           id="g1156"
           transform="translate(78.6318,464.7832)"><path
             d="m 0,0 c 0,-17.609 -14.275,-31.885 -31.885,-31.885 -17.609,0 -31.885,14.276 -31.885,31.885 0,17.61 14.276,31.885 31.885,31.885 C -14.275,31.885 0,17.61 0,0 Z"
             style="fill:none;stroke:#000000;stroke-width:30;stroke-linecap:butt;stroke-linejoin:miter;stroke-miterlimit:10;stroke-dasharray:none;stroke-opacity:1"
             id="path1158" /></g><g
           id="g1160"
           transform="translate(497.3193,464.7832)"><path
             d="m 0,0 c 0,-17.609 -14.275,-31.885 -31.885,-31.885 -17.609,0 -31.885,14.276 -31.885,31.885 0,17.61 14.276,31.885 31.885,31.885 C -14.275,31.885 0,17.61 0,0 Z"
             style="fill:none;stroke:#000000;stroke-width:30;stroke-linecap:butt;stroke-linejoin:miter;stroke-miterlimit:10;stroke-dasharray:none;stroke-opacity:1"
             id="path1162" /></g><g
           id="g1164"
           transform="translate(78.6318,46.5415)"><path
             d="m 0,0 c 0,-17.61 -14.275,-31.885 -31.885,-31.885 -17.609,0 -31.885,14.275 -31.885,31.885 0,17.609 14.276,31.884 31.885,31.884 C -14.275,31.884 0,17.609 0,0 Z"
             style="fill:none;stroke:#000000;stroke-width:30;stroke-linecap:butt;stroke-linejoin:miter;stroke-miterlimit:10;stroke-dasharray:none;stroke-opacity:1"
             id="path1166" /></g><g
           id="g1168"
           transform="translate(497.3193,46.5415)"><path
             d="m 0,0 c 0,-17.61 -14.275,-31.885 -31.885,-31.885 -17.609,0 -31.885,14.275 -31.885,31.885 0,17.609 14.276,31.884 31.885,31.884 C -14.275,31.884 0,17.609 0,0 Z"
             style="fill:none;stroke:#000000;stroke-width:30;stroke-linecap:butt;stroke-linejoin:miter;stroke-miterlimit:10;stroke-dasharray:none;stroke-opacity:1"
             id="path1170" /></g><g
           id="g1172"
           transform="translate(46.7471,432.8985)"><path
             d="M 0,0 V -354.813"
             style="fill:none;stroke:#000000;stroke-width:30;stroke-linecap:butt;stroke-linejoin:miter;stroke-miterlimit:10;stroke-dasharray:none;stroke-opacity:1"
             id="path1174" /></g><g
           id="g1176"
           transform="translate(465.4346,432.8985)"><path
             d="M 0,0 V -354.813"
             style="fill:none;stroke:#000000;stroke-width:30;stroke-linecap:butt;stroke-linejoin:miter;stroke-miterlimit:10;stroke-dasharray:none;stroke-opacity:1"
             id="path1178" /></g><g
           id="g1180"
           transform="translate(433.4976,464.8355)"><path
             d="M 0,0 H -354.813"
             style="fill:none;stroke:#000000;stroke-width:30;stroke-linecap:butt;stroke-linejoin:miter;stroke-miterlimit:10;stroke-dasharray:none;stroke-opacity:1"
             id="path1182" /></g><g
           id="g1184"
           transform="translate(433.4976,46.148)"><path
             d="M 0,0 H -354.813"
             style="fill:none;stroke:#000000;stroke-width:30;stroke-linecap:butt;stroke-linejoin:miter;stroke-miterlimit:10;stroke-dasharray:none;stroke-opacity:1"
             id="path1186" /></g></g></g></g></svg>
