<svg id="line" viewBox="0 0 64 64" xmlns="http://www.w3.org/2000/svg"><path d="m32.50467 32a4.28615 4.28615 0 0 1 3.39648 1.64746.99965.99965 0 0 0 1.58785-1.21484 6.29693 6.29693 0 0 0 -4.98433-2.43262 6.00317 6.00317 0 1 0 0 12 6.295 6.295 0 0 0 4.9834-2.43262.99965.99965 0 0 0 -1.58789-1.21484 4.28714 4.28714 0 0 1 -3.39551 1.64746 4.00468 4.00468 0 1 1 0-8z"/><path d="m59.15079 49.08-9.32001-26.51a5.03256 5.03256 0 0 0 -4.79-3.54h-.04v-2.03a3.00879 3.00879 0 0 0 -3-3h-9v-4.18a3 3 0 1 0 -2 0v4.18h-9a3.00238 3.00238 0 0 0 -3 3v2.26h-.09a4.97637 4.97637 0 0 0 -4.72 3.49l-9.35 26.37a3.03665 3.03665 0 0 0 3.21 3.88l1.66 3.94a4.9843 4.9843 0 0 0 4.61 3.06h35.12a4.98441 4.98441 0 0 0 4.53-2.91l1.88-4.09a3.05076 3.05076 0 0 0 3.30001-3.92zm-27.15003-43.08a1 1 0 1 1 -1 1 1.003 1.003 0 0 1 1-1zm-11 11a1.003 1.003 0 0 1 1-1h20a1.003 1.003 0 0 1 1 1v2.05l-22 .19zm-4.91 6.38a2.98838 2.98838 0 0 1 2.84-2.12l26.09-.23h.02a3.04536 3.04536 0 0 1 2.89 2.16l4.15 11.81h-9.14a10.50849 10.50849 0 0 0 -20.92 0h-10.05zm24.88998 12.62a8.5 8.5 0 1 1 -8.5-8.5 8.50566 8.50566 0 0 1 8.5 8.5zm-26.01 22h-.65a2.99775 2.99775 0 0 1 -2.77-1.84l-1.33-3.16h4.77zm4 0h-2l.02-5h2zm4 0h-2l.02-5h2zm4 0h-2l.02-5h2zm4 0h-2l.02-5h2zm4 0h-2l.02-5h2zm4 0h-2l.02-5h2zm4 0h-2l.02-5h2zm4 0h-2l.02-5h2zm5.19-1.75a3.01586 3.01586 0 0 1 -2.72 1.75h-.47l.02-5h4.67zm4.94-5.65a1.00419 1.00419 0 0 1 -.81.4h-48.58a1.00545 1.00545 0 0 1 -.97-1.25l4.52-12.75h10.76a10.50849 10.50849 0 0 0 20.92 0h9.84l4.47 12.71a1.01324 1.01324 0 0 1 -.15.89z"/></svg>