<svg id="_49_Pilcrow" enable-background="new 0 0 512 512" viewBox="0 0 512 512" xmlns="http://www.w3.org/2000/svg" xmlns:xlink="http://www.w3.org/1999/xlink"><linearGradient id="SVGID_1_" gradientTransform="matrix(1 0 0 -1 0 514)" gradientUnits="userSpaceOnUse" x1="18.379" x2="497.429" y1="557.331" y2="106.083"><stop offset="0" stop-color="#fef48b"/><stop offset=".1646" stop-color="#fdf286"/><stop offset=".3352" stop-color="#fdee7a"/><stop offset=".5086" stop-color="#fce765"/><stop offset=".6839" stop-color="#fcde48"/><stop offset=".8589" stop-color="#fbd123"/><stop offset="1" stop-color="#fac600"/></linearGradient><linearGradient id="lg1"><stop offset="0" stop-color="#fe9738" stop-opacity="0"/><stop offset=".1207" stop-color="#fe9738" stop-opacity=".016"/><stop offset=".2459" stop-color="#fe9738" stop-opacity=".065"/><stop offset=".3731" stop-color="#fe9738" stop-opacity=".147"/><stop offset=".5018" stop-color="#fe9738" stop-opacity=".262"/><stop offset=".6317" stop-color="#fe9738" stop-opacity=".41"/><stop offset=".7625" stop-color="#fe9738" stop-opacity=".59"/><stop offset=".8916" stop-color="#fe9738" stop-opacity=".8"/><stop offset="1" stop-color="#fe9738"/></linearGradient><linearGradient id="SVGID_00000088094946355500048860000017097536569341053842_" gradientTransform="matrix(1 0 0 -1 0 514)" gradientUnits="userSpaceOnUse" x1="113.054" x2="92.737" xlink:href="#lg1" y1="366.784" y2="245.952"/><linearGradient id="SVGID_00000101073918091532395780000016274343443924589459_" gradientTransform="matrix(1 0 0 -1 0 514)" gradientUnits="userSpaceOnUse" x1="381.158" x2="420.392" xlink:href="#lg1" y1="219.228" y2="219.228"/><linearGradient id="SVGID_00000064344423874784445100000010651967323319129758_" gradientTransform="matrix(1 0 0 -1 0 514)" gradientUnits="userSpaceOnUse" x1="379.432" x2="379.432" xlink:href="#lg1" y1="380.188" y2="441.017"/><linearGradient id="SVGID_00000096771761630219445570000004949232964127381414_" gradientTransform="matrix(1 0 0 -1 0 514)" gradientUnits="userSpaceOnUse" x1="451.733" x2="488.34" xlink:href="#lg1" y1="475.228" y2="475.228"/><linearGradient id="SVGID_00000183966282661172598130000011706556067202678147_" gradientTransform="matrix(1 0 0 -1 0 514)" gradientUnits="userSpaceOnUse" x1="224.15" x2="224.15" xlink:href="#lg1" y1="51.554" y2="1.115"/><linearGradient id="SVGID_00000029010478908186924330000013971611045115494810_" gradientTransform="matrix(1 0 0 -1 0 514)" gradientUnits="userSpaceOnUse" x1="379.432" x2="379.432" xlink:href="#lg1" y1="51.554" y2="1.115"/><linearGradient id="SVGID_00000003821683928282366390000015441302831040792970_" gradientTransform="matrix(1 0 0 -1 0 514)" gradientUnits="userSpaceOnUse" x1="224.15" x2="224.15" xlink:href="#lg1" y1="386.248" y2="449.373"/><g><path d="m469.7 0h-313.9c-71 0-128.7 57.6-128.7 128.7 0 71.1 57.6 128.7 128.7 128.7h29.5v236c0 10.3 8.3 18.6 18.6 18.6h40.4c10.3 0 18.6-8.3 18.6-18.6v-415.9h77.7v415.9c0 10.3 8.3 18.6 18.6 18.6h40.4c10.3 0 18.6-8.3 18.6-18.6v-415.9h51.5c8.4 0 15.2-6.8 15.2-15.2v-47.1c0-8.4-6.8-15.2-15.2-15.2z" fill="url(#SVGID_1_)"/><path d="m185.4 0v257.4h-29.5c-35.5 0-67.7-14.4-91-37.7s-37.7-55.5-37.7-91c-.1-71.1 57.6-128.7 128.6-128.7z" fill="url(#SVGID_00000088094946355500048860000017097536569341053842_)"/><path d="m340.7 493.4c0 10.3 8.3 18.6 18.6 18.6h40.4c10.3 0 18.6-8.3 18.6-18.6v-415.9h-77.5v415.9z" fill="url(#SVGID_00000101073918091532395780000016274343443924589459_)"/><path d="m340.7 77.5h77.5v121h-77.5z" fill="url(#SVGID_00000064344423874784445100000010651967323319129758_)"/><path d="m469.7 0h-51.5v77.5h51.5c8.4 0 15.2-6.8 15.2-15.2v-47.1c0-8.4-6.8-15.2-15.2-15.2z" fill="url(#SVGID_00000096771761630219445570000004949232964127381414_)"/><g><path d="m204 512h40.4c10.3 0 18.6-8.3 18.6-18.6v-119.2h-77.5v119.3c-.1 10.2 8.2 18.5 18.5 18.5z" fill="url(#SVGID_00000183966282661172598130000011706556067202678147_)"/><path d="m340.7 374.2v119.3c0 10.3 8.3 18.6 18.6 18.6h40.4c10.3 0 18.6-8.3 18.6-18.6v-119.3z" fill="url(#SVGID_00000029010478908186924330000013971611045115494810_)"/></g><path d="m185.4 257.4h77.5v-179.9h-25.5c-28.8 0-52.1 23.3-52.1 52.1z" fill="url(#SVGID_00000003821683928282366390000015441302831040792970_)"/></g></svg>