<svg id="Layer_1" enable-background="new 0 0 512 512" height="512" viewBox="0 0 512 512" width="512" xmlns="http://www.w3.org/2000/svg"><path clip-rule="evenodd" d="m439.281 511h-3.984-358.594-3.984c-15.404 0-27.891-12.487-27.891-27.891v-378.515c0-15.404 12.487-27.891 27.891-27.891h83.671v43.828c0 6.602 5.352 11.953 11.953 11.953h175.313c6.601 0 11.953-5.351 11.953-11.953v-43.828h3.984 79.687c15.404 0 27.891 12.487 27.891 27.891v378.515c0 15.404-12.487 27.891-27.89 27.891zm-35.859-314.766c0-6.602-5.352-11.953-11.953-11.953h-270.938c-6.601 0-11.953 5.351-11.953 11.953v23.906c0 6.602 5.352 11.953 11.953 11.953h270.937c6.601 0 11.953-5.351 11.953-11.953v-23.906zm0 99.61c0-6.602-5.352-11.954-11.953-11.954h-270.938c-6.601 0-11.953 5.352-11.953 11.954v23.906c0 6.602 5.352 11.953 11.953 11.953h270.937c6.601 0 11.953-5.352 11.953-11.953v-23.906zm0 99.609c0-6.602-5.352-11.952-11.953-11.952h-270.938c-6.601 0-11.953 5.351-11.953 11.952v23.906c0 6.602 5.352 11.953 11.953 11.953h270.937c6.601 0 11.953-5.352 11.953-11.953v-23.906zm-75.704-278.906h-143.437c-6.602 0-11.953-5.352-11.953-11.954v-59.765c0-6.601 5.351-11.952 11.953-11.952h43.828v-19.923c0-6.602 5.352-11.953 11.953-11.953h31.875c6.601 0 11.953 5.351 11.953 11.953v19.923h43.828c6.602 0 11.953 5.351 11.953 11.952v59.766c.001 6.601-5.351 11.953-11.953 11.953zm-3.984-63.75c0-2.201-1.784-3.984-3.985-3.984h-127.5c-2.201 0-3.984 1.783-3.984 3.984v43.828c0 2.201 1.784 3.984 3.984 3.984h127.5c2.201 0 3.985-1.784 3.985-3.984z" fill-rule="evenodd"/></svg>