<svg id="Layer_1" enable-background="new 0 0 450 450" viewBox="0 0 450 450" xmlns="http://www.w3.org/2000/svg"><g><g><g><g><path d="m263.15 419.48h-192.24c-13.86 0-26.91-5.42-36.75-15.27-9.85-9.84-15.27-22.9-15.27-36.75v-285.42c0-13.86 5.42-26.91 15.27-36.75s22.9-15.27 36.75-15.27h28.08c-.49-.87-.72-1.87-.64-2.87.11-1.32.73-2.55 1.74-3.41l19.81-16.85c2.1-1.79 5.26-1.54 7.05.57l33.51 39.37c1.59 1.87 1.59 4.61 0 6.48l-33.51 39.37c-1.79 2.1-4.94 2.36-7.05.57l-19.81-16.85c-1.01-.86-1.64-2.08-1.74-3.41-.11-1.32.32-2.63 1.18-3.64l2.71-3.19h-31.33c-4.2 0-8.18 1.66-11.2 4.68s-4.68 6.99-4.68 11.2v285.41c0 4.21 1.66 8.18 4.68 11.2s6.99 4.68 11.2 4.68h192.24c2.76 0 5 2.24 5 5v26.14c0 2.77-2.24 5.01-5 5.01zm-192.24-379.46c-11.19 0-21.73 4.38-29.68 12.34-7.96 7.96-12.34 18.5-12.34 29.68v285.41c0 11.19 4.38 21.73 12.34 29.68 7.96 7.96 18.5 12.34 29.68 12.34h187.24v-16.14h-187.24c-6.88 0-13.36-2.7-18.27-7.61s-7.61-11.39-7.61-18.27v-285.41c0-6.88 2.7-13.36 7.61-18.27s11.39-7.61 18.27-7.61h42.15c1.95 0 3.72 1.13 4.54 2.9s.53 3.85-.73 5.34l-6.48 7.62 12.2 10.37 27.51-32.33-27.51-32.33-12.2 10.37 3.12 3.66c1.26 1.48 1.55 3.57.73 5.34s-2.59 2.9-4.54 2.9h-38.79z"/></g><g><path d="m329.08 445.78c-1.42 0-2.82-.6-3.81-1.76l-33.51-39.37c-1.59-1.87-1.59-4.61 0-6.48l33.51-39.37c1.79-2.1 4.95-2.35 7.05-.57l19.81 16.85c1.01.86 1.64 2.08 1.74 3.41.11 1.32-.32 2.63-1.18 3.64l-1.03 1.21h27.94c4.21 0 8.18-1.66 11.2-4.68s4.68-6.99 4.68-11.2v-285.41c0-4.21-1.66-8.18-4.68-11.2s-6.99-4.68-11.2-4.68h-192.23c-2.76 0-5-2.24-5-5v-26.15c0-2.76 2.24-5 5-5h192.24c13.86 0 26.91 5.42 36.75 15.27 9.85 9.85 15.27 22.9 15.27 36.75v285.41c0 13.86-5.42 26.91-15.27 36.75-9.84 9.84-22.9 15.27-36.75 15.27h-27.94l1.03 1.21c.86 1.01 1.28 2.32 1.18 3.64-.11 1.32-.73 2.55-1.74 3.41l-19.81 16.85c-.95.81-2.1 1.2-3.25 1.2zm-26.95-44.37 27.51 32.33 12.19-10.37-4.8-5.64c-1.26-1.48-1.55-3.57-.73-5.34s2.59-2.9 4.54-2.9h38.76c11.18 0 21.73-4.38 29.68-12.34 7.96-7.96 12.34-18.5 12.34-29.68v-285.42c0-11.19-4.38-21.73-12.34-29.68-7.96-7.96-18.5-12.34-29.68-12.34h-187.23v16.14h187.24c6.88 0 13.36 2.7 18.27 7.61s7.61 11.39 7.61 18.27v285.41c0 6.88-2.7 13.36-7.61 18.27s-11.39 7.61-18.27 7.61h-38.76c-1.95 0-3.72-1.13-4.54-2.9s-.53-3.85.73-5.34l4.8-5.64-12.19-10.37z"/></g></g><g><g><path d="m308.39 352.05h-166.26c-9.31 0-16.88-7.57-16.88-16.88v-218.86c0-9.31 7.57-16.88 16.88-16.88h166.27c9.31 0 16.88 7.57 16.88 16.88v218.87c-.01 9.3-7.58 16.87-16.89 16.87zm-166.26-242.62c-3.79 0-6.88 3.08-6.88 6.88v218.87c0 3.79 3.08 6.88 6.88 6.88h166.27c3.79 0 6.88-3.08 6.88-6.88v-218.87c0-3.79-3.08-6.88-6.88-6.88z"/></g><g><path d="m320.27 154.33h-190.02c-2.76 0-5-2.24-5-5s2.24-5 5-5h190.02c2.76 0 5 2.24 5 5s-2.24 5-5 5z"/></g><g><ellipse clip-rule="evenodd" cx="158.37" cy="127.19" fill-rule="evenodd" rx="8.63" ry="8.63"/></g><g><circle clip-rule="evenodd" cx="186.79" cy="127.18" fill-rule="evenodd" r="8.63"/></g><g><circle clip-rule="evenodd" cx="215.22" cy="127.18" fill-rule="evenodd" r="8.63"/></g><g><g><path d="m233.83 268.03c-1.73 0-3.41-.9-4.33-2.5l-17.14-29.69c-1.38-2.39-.56-5.45 1.83-6.83s5.45-.56 6.83 1.83l17.14 29.69c1.38 2.39.56 5.45-1.83 6.83-.79.46-1.65.67-2.5.67z"/></g><g><path d="m200.24 268.03c-.94 0-1.89-.27-2.74-.82l-22.61-14.84c-1.41-.92-2.26-2.5-2.26-4.18s.85-3.26 2.26-4.18l22.61-14.84c2.31-1.52 5.41-.87 6.92 1.44 1.52 2.31.87 5.41-1.44 6.92l-16.24 10.66 16.24 10.66c2.31 1.51 2.95 4.62 1.44 6.92-.95 1.47-2.55 2.26-4.18 2.26z"/></g><g><path d="m250.28 268.03c-1.63 0-3.22-.79-4.18-2.26-1.52-2.31-.87-5.41 1.44-6.92l16.24-10.66-16.24-10.66c-2.31-1.52-2.95-4.62-1.44-6.92 1.51-2.31 4.62-2.95 6.92-1.44l22.61 14.84c1.41.92 2.26 2.5 2.26 4.18s-.85 3.26-2.26 4.18l-22.61 14.84c-.85.56-1.8.82-2.74.82z"/></g></g><g><path d="m295.33 179.74h-140.14c-2.76 0-5-2.24-5-5s2.24-5 5-5h140.13c2.76 0 5 2.24 5 5s-2.23 5-4.99 5z"/></g><g><path d="m295.33 200.73h-140.14c-2.76 0-5-2.24-5-5s2.24-5 5-5h140.13c2.76 0 5 2.24 5 5s-2.23 5-4.99 5z"/></g><g><path d="m295.33 221.71h-140.14c-2.76 0-5-2.24-5-5s2.24-5 5-5h140.13c2.76 0 5 2.24 5 5s-2.23 5-4.99 5z"/></g><g><path d="m295.33 284.67h-140.14c-2.76 0-5-2.24-5-5s2.24-5 5-5h140.13c2.76 0 5 2.24 5 5s-2.23 5-4.99 5z"/></g><g><path d="m295.33 305.65h-140.14c-2.76 0-5-2.24-5-5s2.24-5 5-5h140.13c2.76 0 5 2.24 5 5s-2.23 5-4.99 5z"/></g><g><path d="m295.33 326.64h-140.14c-2.76 0-5-2.24-5-5s2.24-5 5-5h140.13c2.76 0 5 2.24 5 5s-2.23 5-4.99 5z"/></g></g></g></g><g id="Master_Layer_2"/></svg>