<svg fill="none" height="24" viewBox="0 0 24 24" width="24" xmlns="http://www.w3.org/2000/svg"><path clip-rule="evenodd" d="m3.09467 3.09467c1.33447-1.33447 3.33136-1.84467 5.90533-1.84467h6c2.574 0 4.5709.5102 5.9053 1.84467 1.3345 1.33447 1.8447 3.33136 1.8447 5.90533v6c0 2.574-.5102 4.5709-1.8447 5.9053-1.3344 1.3345-3.3313 1.8447-5.9053 1.8447h-6c-2.57397 0-4.57086-.5102-5.90533-1.8447-1.33447-1.3344-1.84467-3.3313-1.84467-5.9053v-6c0-2.57397.5102-4.57086 1.84467-5.90533zm1.06066 1.06066c-.91553.91553-1.40533 2.41864-1.40533 4.84467v6c0 1.1135.10319 2.0326.30338 2.7897l4.12848-2.7718c1.06308-.7132 2.57485-.6413 3.54684.1938l.0063.0054.3264.2869c.4993.4262 1.3418.4254 1.8398-.0024l3.0984-2.6589c.8768-.7524 2.1303-.8766 3.1376-.3108l2.1128 1.1866v-4.7185c0-2.42603-.4898-3.92914-1.4053-4.84467-.9156-.91553-2.4187-1.40533-4.8447-1.40533h-6c-2.42603 0-3.92914.4898-4.84467 1.40533zm17.08917 11.28057-2.8418-1.5962c-.4579-.2572-1.0277-.2007-1.4262.1413l-3.0979 2.6585c-.0001 0 .0001-.0001 0 0-1.0611.9112-2.7364.9113-3.7974 0l-.0064-.0055-.32641-.287c-.44837-.3827-1.21456-.4297-1.73041-.0838l-4.37432 2.9369c.15207.2418.32281.4557.51167.6446.91553.9155 2.41864 1.4053 4.84467 1.4053h6c2.426 0 3.9291-.4898 4.8447-1.4053.8594-.8594 1.3436-2.2366 1.3998-4.4088zm-12.2445-8.6859c-.69036 0-1.25.55964-1.25 1.25s.55964 1.25 1.25 1.25 1.25-.55964 1.25-1.25-.55964-1.25-1.25-1.25zm-2.75 1.25c0-1.51878 1.23122-2.75 2.75-2.75 1.5188 0 2.75 1.23122 2.75 2.75s-1.2312 2.75-2.75 2.75c-1.51878 0-2.75-1.23122-2.75-2.75z" fill="rgb(0,0,0)" fill-rule="evenodd"/></svg>