<svg fill="none" height="24" viewBox="0 0 24 24" width="24" xmlns="http://www.w3.org/2000/svg"><g clip-rule="evenodd" fill="rgb(0,0,0)" fill-rule="evenodd"><path d="m4 3c-.55228 0-1 .44772-1 1v16c0 .5523.44772 1 1 1h16c.5523 0 1-.4477 1-1v-4.5h2v4.5c0 1.6569-1.3431 3-3 3h-16c-1.65685 0-3-1.3431-3-3v-16c0-1.65685 1.34315-3 3-3h4.5v2z"/><path d="m9.24322 15.1751c-1.15793-1.4252-3.31297-1.485-4.54816-.1263l-3.435 3.7785c-.330585.3637-.347935.9136-.04093 1.2974l2 2.5c.18978.2372.47709.3753.78087.3753h9.5c.3858 0 .7371-.2219.9029-.5702.1658-.3484.1165-.761-.1268-1.0604z"/><path d="m18.5302 17.6159c-1.1169-1.1167-2.9083-1.1764-4.0969-.1363l-2.5918 2.2678c-.3424.2997-.4394.7928-.2359 1.1998l.5 1c.1694.3388.5157.5528.8944.5528h8c.4045 0 .7691-.2436.9239-.6173s.0692-.8038-.2168-1.0898z"/><path d="m15.5 1c-4.1421 0-7.5 3.35786-7.5 7.5 0 4.1421 3.3579 7.5 7.5 7.5s7.5-3.3579 7.5-7.5c0-4.14214-3.3579-7.5-7.5-7.5zm-1 8.08579v-4.58579h2v4.58579l1.2929-1.2929 1.4142 1.41422-3 2.99999c-.3905.3905-1.0237.3905-1.4142 0l-3-2.99999 1.4142-1.41422z"/></g></svg>