<svg id="Layer_1" viewBox="0 0 512 512" xmlns="http://www.w3.org/2000/svg" data-name="Layer 1"><g fill="#9bc9ff"><path d="m347.187 33.509c0-5.799-4.705-10.517-10.488-10.517h-85.096c-5.799 0-10.517 4.718-10.517 10.517v37.531h106.101z"/><path d="m146.919 246.032c11.199 1.379 21.006 8.367 26.053 18.294 1.763-.547 3.564-.937 5.384-1.186v-32.199c0-18.358 14.146-27.964 28.12-27.964s28.12 9.605 28.12 27.964v68.403c3.221 2.046 6.512 5.19 9.956 10.329 1.332 1.998 2.364 4.094 3.112 6.265 10.255 2.996 15.583 12.449 15.583 21.812s-5.283 18.736-15.453 21.774l-20.678 118.086h189.578c13.614 0 24.69-11.075 24.69-24.689v-289.982h-294.465zm206.788-15.09c0-18.358 14.146-27.964 28.12-27.964s28.12 9.605 28.12 27.964v178.64c0 18.358-14.146 27.964-28.12 27.964s-28.12-9.605-28.12-27.964zm-87.675 0c0-18.358 14.146-27.964 28.12-27.964s28.12 9.605 28.12 27.964v178.64c0 18.358-14.146 27.964-28.12 27.964s-28.12-9.605-28.12-27.964z"/><path d="m155.867 413.058c-2.734 2.735-7.167 2.733-9.901 0l-21.836-21.837-6.766 6.767 21.836 21.836c1.313 1.313 2.051 3.094 2.051 4.951s-.738 3.638-2.051 4.951l-21.836 21.836 6.766 6.767 21.836-21.837c2.734-2.734 7.167-2.734 9.901 0l21.837 21.837 6.766-6.767-21.836-21.836c-2.734-2.734-2.734-7.168 0-9.902l21.836-21.836-6.766-6.767z"/><path d="m189.836 85.042h208.63v21.203h-208.63z"/><path d="m448.809 120.249h-309.316c-5.846 0-10.602 4.756-10.602 10.602v18.085h330.52v-18.085c0-5.846-4.756-10.602-10.602-10.602z"/></g><path d="m199.322 393.037-16.667-16.668c-1.313-1.312-3.094-2.051-4.951-2.051s-3.638.738-4.951 2.051l-21.837 21.837-21.836-21.837c-2.734-2.734-7.167-2.734-9.901 0l-16.668 16.668c-1.313 1.313-2.051 3.095-2.051 4.951s.738 3.638 2.051 4.951l21.836 21.836-21.836 21.836c-1.313 1.313-2.051 3.094-2.051 4.951s.737 3.638 2.051 4.951l16.668 16.668c2.734 2.734 7.167 2.734 9.901 0l21.836-21.837 21.837 21.837c1.313 1.312 3.094 2.051 4.951 2.051s3.638-.738 4.951-2.051l16.667-16.668c2.734-2.734 2.734-7.168 0-9.902l-21.836-21.836 21.836-21.836c2.734-2.734 2.734-7.168 0-9.902zm-36.688 26.787c-2.734 2.734-2.734 7.168 0 9.902l21.836 21.836-6.766 6.767-21.837-21.837c-2.734-2.734-7.167-2.734-9.901 0l-21.836 21.837-6.766-6.767 21.836-21.836c1.313-1.313 2.051-3.094 2.051-4.951s-.738-3.638-2.051-4.951l-21.836-21.836 6.766-6.767 21.836 21.837c2.734 2.733 7.167 2.735 9.901 0l21.837-21.837 6.766 6.767z" fill="#69f"/><path d="m381.826 437.545c13.974 0 28.12-9.605 28.12-27.964v-178.639c0-18.358-14.146-27.964-28.12-27.964s-28.12 9.605-28.12 27.964v178.64c0 18.358 14.146 27.964 28.12 27.964zm-14.117-206.604c0-10.305 7.604-13.961 14.117-13.961s14.117 3.656 14.117 13.961v178.64c0 10.304-7.604 13.96-14.117 13.96s-14.117-3.656-14.117-13.96v-178.639z" fill="#69f"/><path d="m448.809 106.246h-36.34v-28.205c0-3.867-3.135-7.001-7.001-7.001h-44.277v-37.531c0-13.521-10.987-24.52-24.491-24.52h-85.096c-13.52 0-24.52 11-24.52 24.52v37.531h-44.249c-3.867 0-7.001 3.135-7.001 7.001v28.205h-36.34c-13.567 0-24.605 11.038-24.605 24.604v25.087c0 3.867 3.135 7.002 7.001 7.002h11.027v84.339c-4.942 1.529-9.49 4.173-13.258 7.75-9.243-4.467-20.097-4.485-29.6.215-9.998 4.944-16.738 14.296-18.36 25.085-11.501 5.585-18.945 17.241-18.945 30.324 0 1.892.156 3.757.462 5.589-9.631 3.29-14.629 12.442-14.629 21.511 0 9.324 5.283 18.737 15.453 21.775l21.496 122.758c2.112 12.01 12.487 20.728 24.668 20.728h101.424c8.707 0 16.472-4.468 20.976-11.396h194.088c21.335 0 38.693-17.358 38.693-38.693v-289.985h11.027c3.867 0 7.001-3.135 7.001-7.002v-25.087c0-13.567-11.038-24.604-24.604-24.604zm-207.723-72.737c0-5.799 4.718-10.517 10.517-10.517h85.096c5.783 0 10.488 4.718 10.488 10.517v37.531h-106.101zm-51.25 51.534h208.63v21.203h-208.63zm-109.375 206.82c2.878-.924 4.838-3.59 4.861-6.612.058-7.57 4.149-14.096 10.943-17.455 6.848-3.388 14.547-2.695 20.595 1.852 1.514 1.138 3.424 1.613 5.294 1.32 1.871-.295 3.542-1.334 4.634-2.881 3.674-5.208 9.684-8.316 16.077-8.316 9.194 0 17.297 6.52 19.268 15.503.486 2.215 2.014 4.057 4.1 4.943 2.087.889 4.474.708 6.405-.479 5.071-3.116 10.968-3.772 16.598-1.845 5.665 1.938 10.087 6.161 12.136 11.597 5.875 15.521 12.579 18.108 20.099 19.709 3.438.732 6.059 1.301 9.618 5.762h-163.859c-.315-1.401-.475-2.841-.475-4.309 0-8.606 5.508-16.157 13.706-18.789zm111.897-27.64v-33.281c0-10.305 7.604-13.961 14.117-13.961s14.117 3.656 14.117 13.961v63.357c-2.046-1.148-3.759-3.524-6.119-9.758-3.524-9.35-11.07-16.603-20.703-19.897-.467-.16-.941-.283-1.412-.421zm-139.768 73.528c0-1.468.417-8.787 8.667-8.787h179.319c8.25 0 8.667 7.319 8.667 8.787s-.417 8.787-8.667 8.787h-179.319c-8.25 0-8.667-7.319-8.667-8.787zm159.916 142.106c-.947 5.388-5.42 9.149-10.877 9.149h-101.425c-5.457 0-9.93-3.762-10.876-9.145l-20.894-119.32h164.965l-20.894 119.315zm228.877-26.936c0 13.614-11.076 24.689-24.69 24.689h-189.578l20.678-118.086c10.17-3.038 15.453-12.451 15.453-21.774s-5.328-18.816-15.583-21.812c-.748-2.171-1.78-4.267-3.112-6.265-3.444-5.139-6.734-8.283-9.956-10.329v-68.403c0-18.358-14.146-27.964-28.12-27.964s-28.12 9.605-28.12 27.964v32.199c-1.82.249-3.621.638-5.384 1.186-5.047-9.927-14.854-16.915-26.053-18.294v-83.093h294.465v289.983zm18.028-303.987h-330.52v-18.085c0-5.846 4.756-10.602 10.602-10.602h309.316c5.846 0 10.602 4.756 10.602 10.602z" fill="#69f"/><path d="m294.151 437.545c13.974 0 28.12-9.605 28.12-27.964v-178.639c0-18.358-14.146-27.964-28.12-27.964s-28.12 9.605-28.12 27.964v178.64c0 18.358 14.146 27.964 28.12 27.964zm-14.117-206.604c0-10.305 7.604-13.961 14.117-13.961s14.117 3.656 14.117 13.961v178.64c0 10.304-7.604 13.96-14.117 13.96s-14.117-3.656-14.117-13.96v-178.639z" fill="#69f"/></svg>