<svg clip-rule="evenodd" fill-rule="evenodd" height="512" image-rendering="optimizeQuality" shape-rendering="geometricPrecision" text-rendering="geometricPrecision" viewBox="0 0 1706.66 1706.66" width="512" xmlns="http://www.w3.org/2000/svg" xmlns:xodm="http://www.corel.com/coreldraw/odm/2003"><g id="Layer_x0020_1"><path d="m47.5 1440.87c-19.66 0-47.44-30.73-47.44-63.48v-1096.31c0-11.04 8.96-20 20-20h413.18c5.87 0 11.43 2.57 15.23 7.04l141.09 165.82 806.94.01c37.59 0 68.17 30.59 68.17 68.19v99.55c0 25.57-40 27.84-40-1.55h-1159.93l-207.3 804.03c23.26 17.76 3.3 36.72-9.95 36.72z" fill="#ffb800"/><path d="m1513.73 1445.59h-1467.44c-13.02 0-22.62-12.36-19.37-24.97l211.28-823.9c2.28-8.84 10.24-15.03 19.37-15.03h1429.02c12.68 0 22.17 11.7 19.57 24.11l-172.87 823.9c-1.94 9.25-10.11 15.88-19.57 15.88z" fill="#fc0"/><path d="m650.21 1283.77h436.58v-415.2l-118.25-125.88h-318.33z"/><path d="m1106.79 1323.78h-476.57c-11.04 0-20-8.97-20-20v-581.1c0-11.04 8.96-20 20-20h346.98c5.51 0 10.79 2.28 14.58 6.3l129.6 137.97c3.48 3.71 5.43 8.61 5.43 13.7v443.13c-.02 11.02-8.98 20-20.02 20z" fill="#e9f1ff"/><path d="m974.21 702.69c6.85 0 12.26.67 17.56 6.3l129.6 137.97c8.29 8.83 5.43 28.3 5.43 45.22h-133.02c-12.55 0-22.74-10.2-22.74-22.74v-156.83c0-4.76 1.13-7.97 3.16-9.93z" fill="#dfe6f2"/><g fill="#fb505a"><path d="m872.26 872.9h-153c-26.32 0-26.33-40 0-40h153c26.32 0 26.34 40 0 40z"/><path d="m1017.73 979.78h-298.47c-26.32 0-26.32-40 0-40h298.47c26.32 0 26.32 40 0 40z"/><path d="m1017.73 1086.69h-298.47c-26.32 0-26.32-40 0-40h298.47c26.32 0 26.32 40 0 40z"/><path d="m1017.73 1193.57h-298.47c-26.32 0-26.32-40 0-40h298.47c26.32 0 26.32 40 0 40z"/></g></g></svg>