<svg id="Laag_1" viewBox="0 0 102.05 102.05" xmlns="http://www.w3.org/2000/svg" data-name="Laag 1"><path d="m70.92 33.39v10.13h9.66z" fill="none"/><path d="m68.92 47.52a2 2 0 0 1 -2-2v-14.47h-28.64v59.95h44.53v-43.48z" fill="none"/><g fill="#161616"><path d="m86.26 43.67-15.26-16a2 2 0 0 0 -1.45-.62h-33.27a2 2 0 0 0 -2 2v63.95a2 2 0 0 0 2 2h48.53a2 2 0 0 0 2-2v-47.95a2 2 0 0 0 -.55-1.38zm-15.34-10.28 9.66 10.13h-9.66zm-32.64 57.61v-59.95h28.64v14.47a2 2 0 0 0 2 2h13.89v43.48z"/><path d="m29.28 81h-1v-59.95h30.4l2.12 2.28a2 2 0 0 0 2.93-2.73l-2.73-2.91a2 2 0 0 0 -1.46-.64h-33.26a2 2 0 0 0 -2 2v63.95a2 2 0 0 0 2 2h3a2 2 0 0 0 0-4z"/><path d="m19.28 71h-1v-59.95h30.4l2.12 2.28a2 2 0 0 0 2.93-2.73l-2.73-2.91a2 2 0 0 0 -1.46-.64h-33.26a2 2 0 0 0 -2 2v63.95a2 2 0 0 0 2 2h3a2 2 0 0 0 0-4z"/></g></svg>