<svg clip-rule="evenodd" fill-rule="evenodd" height="1.707in" image-rendering="optimizeQuality" shape-rendering="geometricPrecision" text-rendering="geometricPrecision" viewBox="0 0 1.70666 1.70666" width="1.707in" xmlns="http://www.w3.org/2000/svg"><g id="Layer_x0020_1"><g fill="#ffba00"><path d="m.279831 1.37115c0-.0238819-.0194449-.043315-.0433307-.043315-.0238898 0-.0433307.0194331-.0433307.043315s.0194331.043315.0433307.043315.0433307-.0194331.0433307-.043315z"/><path d="m.193169 1.15785c0 .0238819.0194331.043315.0433307.043315s.0433307-.0194331.0433307-.043315-.0194449-.043315-.0433307-.043315c-.0238898 0-.0433307.0194331-.0433307.043315z"/><path d="m.2365.98785c.0238976 0 .0433307-.0194291.0433307-.043315 0-.0238819-.0194449-.043311-.0433307-.043311-.0238898 0-.0433307.0194291-.0433307.043311 0 .0238858.0194331.043315.0433307.043315z"/><path d="m.210638.689567c.0237953 0 .0431339-.0193543.0431339-.0431496 0-.0237913-.0193465-.0431496-.0431339-.0431496s-.0431496.0193583-.0431496.0431496c0 .0237874.0193583.0431496.0431496.0431496z"/><path d="m.410744.603268c-.0237874 0-.0431496.0193583-.0431496.0431496 0 .0237874.0193583.0431496.0431496.0431496s.0431535-.0193543.0431535-.0431496c0-.0237913-.0193465-.0431496-.0431535-.0431496z"/><path d="m.610862.603268c-.0237874 0-.0431496.0193583-.0431496.0431496 0 .0237874.0193583.0431496.0431496.0431496.0237874 0 .0431535-.0193543.0431535-.0431496 0-.0237913-.0193583-.0431496-.0431535-.0431496z"/><path d="m.811224.627957c-.0101772 0-.0184724.00829528-.0184724.0184724 0 .0101772.00829528.0184685.0184724.0184685h.378437c.0101772 0 .0184528-.00829134.0184528-.0184685 0-.0101772-.00827559-.0184724-.0184528-.0184724z"/><path d="m.752772.646417c0-.0322323.0262165-.0584488.0584528-.0584488l.378437-.00000787c.0322323 0 .0584646.0262205.0584646.0584528s-.0262323.0584724-.0584646.0584724h-.378437c-.0322362 0-.0584528-.0262362-.0584528-.0584685zm.499118-.110476h-1.01296-.115228c-.0314134 0-.0569803.0255512-.0569803.0569803v.163984h1.24215v-.12739-.0365945c0-.0314134-.0255551-.0569803-.0569843-.0569803zm-.641028.0273228c.0458465 0 .0831496.0373071.0831496.0831496s-.0373031.0831457-.0831496.0831457c-.0458425 0-.0831457-.0373031-.0831457-.0831457 0-.0458425.0373031-.0831496.0831457-.0831496zm-.200118 0c.0458465 0 .0831496.0373071.0831496.0831496s-.0372953.0831457-.0831496.0831457c-.0458425 0-.0831457-.0373031-.0831457-.0831457 0-.0458425.0373031-.0831496.0831457-.0831496zm-.116972.0831496c0 .0458425-.0372913.0831457-.0831339.0831457-.0458425 0-.0831457-.0373031-.0831457-.0831457 0-.0458425.0373031-.0831496.0831457-.0831496.0458425 0 .0831339.0373071.0831339.0831496z"/><path d="m1.54106.629516.00001575.594512h.0951969c.0314331 0 .0569843-.0255512.0569843-.0569646v-.664925h-.152197v.127378z"/><path d="m1.54105317.46214133h.152197v-.163996c0-.0314134-.0255512-.0569803-.0569843-.0569803h-1.12818c-.0314134 0-.0569843.0255512-.0569843.0569803v.0504094h.992965c.0242402 0 .0464291.00893701.0634449.023689l.00174016.00154724.00170472.00158661.00166535.00162598.00162598.00166535.00158661.00170472.00154724.00174016.00150394.00177953.00146063.00181496.00142126.00185039.00137402.00188189.00133071.00191732.0012874.00195276.00123622.00198425.00119291.00201575.00114567.00204331.00109843.0020748.00103543.00209055c.00614567.0127165.00958661.0269685.00958661.0420157v.0166063z"/></g><path d="m1.66659.475472h-.152197v.127378.594512h.00001575.0951969c.0314331 0 .0569843-.0255512.0569843-.0569646v-.664925zm-.441362 1.05668h-1.12819c-.0534646 0-.0969606-.0435079-.0969606-.0969606v-.684949-.183984c0-.0534646.0434961-.0969606.0969606-.0969606h.0952323v-.0504252c0-.0534646.0434961-.0969646.0969764-.0969646h.0952087v-.0504252c0-.0534646.0434961-.0969606.0969606-.0969606l1.12819-.00000787c.0534843 0 .0969803.0435.0969803.0969646v.183996.684937c0 .0534528-.0434961.0969646-.0969803.0969646h-.0952126v.0504094c.00001575.0534803-.0434921.0969961-.0969764.0969961h-.0952087v.0504094c.00000787.0534528-.0435.0969606-.0969803.0969606zm-1.12819-1.02287c-.0314134 0-.0569803.0255512-.0569803.0569803v.163984h1.24215v-.12739-.0365945c0-.0314134-.0255551-.0569803-.0569843-.0569803h-1.01296-.115228zm-.0569803.260961v.664953c0 .0314134.0255512.0569646.0569803.0569646h1.12819c.0314291 0 .0569843-.0255512.0569843-.0569646v-.0704094-.594543h-1.24215zm.143917-.0673425c-.0458425 0-.0831457-.0373031-.0831457-.0831457 0-.0458425.0373031-.0831496.0831457-.0831496.0458425 0 .0831339.0373071.0831339.0831496s-.0372913.0831457-.0831339.0831457zm0-.126291c-.0237874 0-.0431496.0193583-.0431496.0431496 0 .0237874.0193583.0431496.0431496.0431496.0237953 0 .0431339-.0193543.0431339-.0431496 0-.0237913-.0193465-.0431496-.0431339-.0431496zm.200106.126291c-.0458425 0-.0831457-.0373031-.0831457-.0831457 0-.0458425.0373031-.0831496.0831457-.0831496.0458465 0 .0831496.0373071.0831496.0831496s-.0372953.0831457-.0831496.0831457zm0-.126291c-.0237874 0-.0431496.0193583-.0431496.0431496 0 .0237874.0193583.0431496.0431496.0431496s.0431535-.0193543.0431535-.0431496c0-.0237913-.0193465-.0431496-.0431535-.0431496zm.200118.126291c-.0458425 0-.0831457-.0373031-.0831457-.0831457 0-.0458425.0373031-.0831496.0831457-.0831496.0458465 0 .0831496.0373071.0831496.0831496s-.0373031.0831457-.0831496.0831457zm0-.126291c-.0237874 0-.0431496.0193583-.0431496.0431496 0 .0237874.0193583.0431496.0431496.0431496.0237874 0 .0431535-.0193543.0431535-.0431496 0-.0237913-.0193583-.0431496-.0431535-.0431496zm.578799.101618h-.378437c-.0322362 0-.0584528-.0262362-.0584528-.0584685s.0262165-.0584488.0584528-.0584488l.378437-.00000787c.0322323 0 .0584646.0262205.0584646.0584528s-.0262323.0584724-.0584646.0584724zm-.378437-.0769291c-.0101772 0-.0184724.00829528-.0184724.0184724 0 .0101772.00829528.0184685.0184724.0184685h.378437c.0101772 0 .0184528-.00829134.0184528-.0184685 0-.0101772-.00827559-.0184724-.0184528-.0184724zm.391228.379925h-.536118c-.0110394 0-.02-.00897244-.02-.02 0-.0110276.00896063-.0199961.02-.0199961h.536118c.0110354 0 .0199961.0089685.0199961.0199961s-.00896063.02-.0199961.02zm-.618929 0h-.181748c-.0110394 0-.02-.00897244-.02-.02 0-.0110276.00896063-.0199961.02-.0199961h.181732c.0110354 0 .0199961.0089685.0199961.0199961s-.00894488.02-.0199803.02zm.618898-.0866614h-.181748c-.0110394 0-.02-.0089685-.02-.0199961s.00897244-.02.02-.02h.181748c.0110354 0 .0199961.00896063.0199961.02 0 .0110394-.00895276.0199961-.0199961.0199961zm-.264571 0h-.536106c-.0110394 0-.02-.0089685-.02-.0199961s.00896063-.02.02-.02h.536106c.0110394 0 .02.00896063.02.02 0 .0110394-.00896063.0199961-.02.0199961zm-.70135.106646c-.045937 0-.0833268-.0373701-.0833268-.0833228 0-.0459528.037374-.0833268.0833268-.0833268s.0833268.037374.0833268.0833268-.0373898.0833228-.0833268.0833228zm0-.126642c-.0238898 0-.0433307.0194291-.0433307.043311 0 .0238858.0194331.043315.0433307.043315s.0433307-.0194291.0433307-.043315c0-.0238819-.0194449-.043311-.0433307-.043311zm.965953.319961h-.536118c-.0110394 0-.02-.00897244-.02-.02 0-.0110276.00896063-.0199961.02-.0199961h.536118c.0110354 0 .0199961.0089685.0199961.0199961s-.00896063.02-.0199961.02zm-.618929 0h-.181748c-.0110394 0-.02-.00897244-.02-.02 0-.0110276.00896063-.0199961.02-.0199961h.181732c.0110354 0 .0199961.0089685.0199961.0199961s-.00894488.02-.0199803.02zm.618898-.0866614h-.181748c-.0110394 0-.02-.0089685-.02-.0199961s.00897244-.02.02-.02h.181748c.0110354 0 .0199961.00897244.0199961.02 0 .0110276-.00895276.0199961-.0199961.0199961zm-.264571 0h-.536106c-.0110394 0-.02-.0089685-.02-.0199961s.00896063-.02.02-.02h.536106c.0110394 0 .02.00897244.02.02 0 .0110276-.00896063.0199961-.02.0199961zm-.70135.106657c-.045937 0-.0833268-.0373701-.0833268-.0833268 0-.0459528.037374-.0833228.0833268-.0833228s.0833268.0373701.0833268.0833228c0 .0459567-.0373898.0833268-.0833268.0833268zm0-.126646c-.0238898 0-.0433307.0194331-.0433307.043315s.0194331.043315.0433307.043315.0433307-.0194331.0433307-.043315-.0194449-.043315-.0433307-.043315zm.965953.319972h-.536118c-.0110394 0-.02-.00897244-.02-.02 0-.0110276.00896063-.0199961.02-.0199961h.536118c.0110354 0 .0199961.0089685.0199961.0199961s-.00896063.02-.0199961.02zm-.618929 0h-.181748c-.0110394 0-.02-.00897244-.02-.02 0-.0110276.00896063-.0199961.02-.0199961h.181732c.0110354 0 .0199961.0089685.0199961.0199961s-.00894488.02-.0199803.02zm.618898-.0866693h-.181748c-.0110394 0-.02-.00897244-.02-.02 0-.0110276.00897244-.0199961.02-.0199961h.181748c.0110354 0 .0199961.0089685.0199961.0199961s-.00895276.02-.0199961.02zm-.264571 0h-.536106c-.0110394 0-.02-.00897244-.02-.02 0-.0110276.00896063-.0199961.02-.0199961h.536106c.0110394 0 .02.0089685.02.0199961s-.00896063.02-.02.02zm-.70135.106642c-.045937 0-.0833268-.037374-.0833268-.0833268s.037374-.0833268.0833268-.0833268.0833268.037374.0833268.0833268-.0373898.0833268-.0833268.0833268zm0-.126642c-.0238898 0-.0433307.0194331-.0433307.043315s.0194331.043315.0433307.043315.0433307-.0194331.0433307-.043315-.0194449-.043315-.0433307-.043315zm1.29497-.924319c.00614567.0127165.00958661.0269685.00958661.0420157v.0166063h.152197v-.163996c0-.0314134-.0255512-.0569803-.0569843-.0569803h-1.12818c-.0314134 0-.0569843.0255512-.0569843.0569803v.0504094h.992965c.0242402 0 .0464291.00893701.0634449.023689l.00172835.0015315.00001181.00001575c.00057087.00051969.0011378.00103937.00169291.00157087l.00001181.00001575.00165354.00161024.00001181.00001575.00161417.00164961.00001181.00001575.0015748.00168898.00001181.00001575.00153543.00172441.00001181.00001575.00149213.00176378.00001181.00001575.00144882.00179921.00001181.00001575.00140945.00183465.00001181.00001575.0013622.00186614.00001181.00001575.0013189.00190157.00001181.00001575.00127559.00193701.00001181.00001575.00122441.0019685.00001181.00001575.0011811.002.00001181.00001575.00113386.00202756.00001181.00001575.00108661.00205906.00001181.00001575.00103543.00209055zm-.182591.967913h.0952008c.0314291 0 .0569803-.0255512.0569803-.0569843v-.0704055-.594528h-.152189v.12739.594528h.00000787zm-.91776-.982882h-.115209c-.0314134 0-.0569803.0255512-.0569803.0569843v.0504094h.992961c.0451299 0 .0831496.0309724.0939213.0727717l.00057087.0023189v.00001575l.00051575.00233858v.00001575l.00045669.00235827v.00001575l.00039764.00237795v.00001575l.00033858.00240157v.00001575l.00027953.00241732v.00001575l.00021654.00243307v.00001575l.00015748.00245276v.00001575l.00009449.00246457v.00001575l.0000315.00248425v.00001575.0165984h.152189v-.127382-.0366024c0-.0314173-.0255512-.0569843-.0569803-.0569843h-1.01296z" fill="#010103"/><path d="m.209835.834551c.0459528 0 .0833268.037374.0833268.0833268s-.0373898.0833228-.0833268.0833228-.0833268-.0373701-.0833268-.0833228c0-.0459528.037374-.0833268.0833268-.0833268zm1.07237-.064315h-1.24215v.664953c0 .0314134.0255512.0569646.0569803.0569646h1.12819c.0314291 0 .0569843-.0255512.0569843-.0569646v-.0704094-.594543zm-.90713.0843228h.536106c.0110394 0 .02.00896063.02.02 0 .0110394-.00896063.0199961-.02.0199961h-.536106c-.0110394 0-.02-.0089685-.02-.0199961s.00896063-.02.02-.02zm.264591.0866614h.536118c.0110354 0 .0199961.0089685.0199961.0199961s-.00896063.02-.0199961.02h-.536118c-.0110394 0-.02-.00897244-.02-.02 0-.0110276.00896063-.0199961.02-.0199961zm-.264559 0h.181732c.0110354 0 .0199961.0089685.0199961.0199961s-.00894488.02-.0199803.02h-.181748c-.0110394 0-.02-.00897244-.02-.02 0-.0110276.00896063-.0199961.02-.0199961zm.618898-.0466654c-.0110394 0-.02-.0089685-.02-.0199961s.00897244-.02.02-.02h.181748c.0110354 0 .0199961.00896063.0199961.02 0 .0110394-.00895276.0199961-.0199961.0199961zm-.618929.173307h.536106c.0110394 0 .02.00897244.02.02 0 .0110276-.00896063.0199961-.02.0199961h-.536106c-.0110394 0-.02-.0089685-.02-.0199961s.00896063-.02.02-.02zm.264591.0866614h.536118c.0110354 0 .0199961.0089685.0199961.0199961s-.00896063.02-.0199961.02h-.536118c-.0110394 0-.02-.00897244-.02-.02 0-.0110276.00896063-.0199961.02-.0199961zm-.264559 0h.181732c.0110354 0 .0199961.0089685.0199961.0199961s-.00894488.02-.0199803.02h-.181748c-.0110394 0-.02-.00897244-.02-.02 0-.0110276.00896063-.0199961.02-.0199961zm.598898-.0666614c0-.0110276.00897244-.02.02-.02h.181748c.0110354 0 .0199961.00897244.0199961.02 0 .0110276-.00895276.0199961-.0199961.0199961h-.181748c-.0110394 0-.02-.0089685-.02-.0199961zm-.764173-.0399961c.0459528 0 .0833268.0373701.0833268.0833228 0 .0459567-.0373898.0833268-.0833268.0833268s-.0833268-.0373701-.0833268-.0833268c0-.0459528.037374-.0833228.0833268-.0833228zm.165244.233311h.536106c.0110394 0 .02.0089685.02.0199961s-.00896063.02-.02.02h-.536106c-.0110394 0-.02-.00897244-.02-.02 0-.0110276.00896063-.0199961.02-.0199961zm.264591.0866693h.536118c.0110354 0 .0199961.0089685.0199961.0199961s-.00896063.02-.0199961.02h-.536118c-.0110394 0-.02-.00897244-.02-.02 0-.0110276.00896063-.0199961.02-.0199961zm-.264559 0h.181732c.0110354 0 .0199961.0089685.0199961.0199961s-.00894488.02-.0199803.02h-.181748c-.0110394 0-.02-.00897244-.02-.02 0-.0110276.00896063-.0199961.02-.0199961zm.618898-.0866693h.181748c.0110354 0 .0199961.0089685.0199961.0199961s-.00895276.02-.0199961.02h-.181748c-.0110394 0-.02-.00897244-.02-.02 0-.0110276.00897244-.0199961.02-.0199961zm-.8675.063311c0-.0459528.037374-.0833268.0833268-.0833268s.0833268.037374.0833268.0833268-.0373898.0833268-.0833268.0833268-.0833268-.037374-.0833268-.0833268z" fill="#fff"/><path d="m.2322682.46927967h.992961c.0451299 0 .0831496.0309724.0939213.0727717l.00057087.00233465.00051575.00235433.00045669.00237402.00039764.0023937.00033858.00241732.00027953.00243307.00021654.00244882.00015748.0024685.00009449.00248031.0000315.0025v.0165984h.152189v-.127382-.0366024c0-.0314173-.0255512-.0569843-.0569803-.0569843h-1.01296-.115209c-.0314134 0-.0569803.0255512-.0569803.0569843v.0504094z" fill="#fff"/><path d="m1.3222.622853v.12739l.00000787.594528h.0952008c.0314291 0 .0569803-.0255512.0569803-.0569843v-.0704055-.594528h-.152189z" fill="#fff"/></g></svg>