<svg id="Layer_1" enable-background="new 0 0 48 48" viewBox="0 0 48 48" xmlns="http://www.w3.org/2000/svg"><g><path d="m8.5 39h1v5c0 .55.45 1 1 1h29c.55 0 1-.45 1-1v-40c0-.55-.45-1-1-1h-29c-.55 0-1 .45-1 1v5h-1c-.55 0-1 .45-1 1v4c0 .55.45 1 1 1h1v6h-1c-.55 0-1 .45-1 1v4c0 .55.45 1 1 1h1v6h-1c-.55 0-1 .45-1 1v4c0 .55.45 1 1 1zm3-34h27v38h-27v-4h1c.55 0 1-.45 1-1v-4c0-.55-.45-1-1-1h-1v-6h1c.55 0 1-.45 1-1v-4c0-.55-.45-1-1-1h-1v-6h1c.55 0 1-.45 1-1v-4c0-.55-.45-1-1-1h-1zm-2 6h2v2h-2zm0 12h2v2h-2zm0 12h2v2h-2z"/><path d="m16.5 21h19c.55 0 1-.45 1-1s-.45-1-1-1h-19c-.55 0-1 .45-1 1s.45 1 1 1z"/><path d="m16.5 25h19c.55 0 1-.45 1-1s-.45-1-1-1h-19c-.55 0-1 .45-1 1s.45 1 1 1z"/><path d="m16.5 29h19c.55 0 1-.45 1-1s-.45-1-1-1h-19c-.55 0-1 .45-1 1s.45 1 1 1z"/><path d="m16.5 33h19c.55 0 1-.45 1-1s-.45-1-1-1h-19c-.55 0-1 .45-1 1s.45 1 1 1z"/><path d="m16.5 37h19c.55 0 1-.45 1-1s-.45-1-1-1h-19c-.55 0-1 .45-1 1s.45 1 1 1z"/><path d="m22.5 13h2v2c0 .55.45 1 1 1s1-.45 1-1v-2h2c.55 0 1-.45 1-1s-.45-1-1-1h-2v-2c0-.55-.45-1-1-1s-1 .45-1 1v2h-2c-.55 0-1 .45-1 1s.45 1 1 1z"/></g></svg>