<svg id="Layer_1" enable-background="new 0 0 32 32" viewBox="0 0 32 32" xmlns="http://www.w3.org/2000/svg"><path d="m6.2929688 12.2929688c.390625-.390625 1.0234375-.390625 1.4140625 0l3 3c.390625.390625.390625 1.0234375 0 1.4140625l-3 3c-.1953125.1953125-.4511719.2929687-.7070313.2929687s-.5117188-.0976563-.7070313-.2929688c-.390625-.390625-.390625-1.0234375 0-1.4140625l2.2929688-2.2929687-2.2929688-2.2929688c-.3906249-.3906249-.3906249-1.0234374.0000001-1.4140624zm22.7070312-7.2929688v22c0 1.6542969-1.3457031 3-3 3h-20c-1.6542969 0-3-1.3457031-3-3v-22c0-1.6542969 1.3457031-3 3-3h20c1.6542969 0 3 1.3457031 3 3zm-17-1h-6c-.5517578 0-1 .4487305-1 1v22c0 .5512695.4482422 1 1 1h6zm15 1c0-.5512695-.4482422-1-1-1h-12v24h12c.5517578 0 1-.4487305 1-1z"/></svg>