<svg height="512" viewBox="0 0 64 64" width="512" xmlns="http://www.w3.org/2000/svg"><g><path d="m30 52h4v2h-4z"/><path d="m30 48h4v2h-4z"/><path d="m32 39c-.338 0-.667-.031-1-.051v7.051h2v-7.051c-.333.02-.662.051-1 .051z"/><path d="m29 60a2 2 0 0 0 -2 2h10a2 2 0 0 0 -2-2z"/><path d="m32 37a15 15 0 1 0 -15-15 15.017 15.017 0 0 0 15 15zm0-28a13 13 0 1 1 -13 13 13.015 13.015 0 0 1 13-13z"/><path d="m32 33a11 11 0 1 0 -11-11 11.013 11.013 0 0 0 11 11zm-9-10v-2a2 2 0 0 1 2-2h7v-2a1 1 0 0 1 1.581-.814l7 5a1 1 0 0 1 0 1.628l-7 5a1 1 0 0 1 -1.581-.814v-2h-7a2 2 0 0 1 -2-2z"/><path d="m33 5.051v-2.051a1 1 0 0 0 -2 0v2.051c.333-.02.662-.051 1-.051s.667.031 1 .051z"/><path d="m34 24v1.057l4.279-3.057-4.279-3.057v1.057a1 1 0 0 1 -1 1h-8v2h8a1 1 0 0 1 1 1z"/><path d="m30 56h4v2h-4z"/></g></svg>