<svg id="SVGRoot" height="512" viewBox="0 0 24 24" width="512" xmlns="http://www.w3.org/2000/svg" xmlns:svg="http://www.w3.org/2000/svg"><g id="g16346" stroke-linecap="round" stroke-linejoin="round"><path id="path16305" d="m6.5 2c-1.3763495 0-2.5 1.1236505-2.5 2.5v15c0 1.37635 1.1236505 2.5 2.5 2.5h11c1.37635 0 2.5-1.12365 2.5-2.5v-12c0-.7727047-.307131-1.5141622-.853516-2.0605469l-2.585937-2.5859375c-.546385-.5463847-1.287842-.8535157-2.060547-.8535156zm0 1h8c.507873 0 .994395.2014267 1.353516.5605469l2.585937 2.5859375c.35912.3591201.560547.845643.560547 1.3535156v12c0 .839646-.660354 1.5-1.5 1.5h-11c-.8396461 0-1.5-.660354-1.5-1.5v-15c0-.8396461.6603539-1.5 1.5-1.5z"/><path id="path16308" d="m8.5 13c-.8223506 0-1.5.677649-1.5 1.5v4c0 .822351.6776494 1.5 1.5 1.5h7c.822351 0 1.5-.677649 1.5-1.5v-4c0-.822351-.677649-1.5-1.5-1.5zm0 1h7c.285648 0 .5.214352.5.5v4c0 .285648-.214352.5-.5.5h-7c-.2856483 0-.5-.214352-.5-.5v-4c0-.285648.2143517-.5.5-.5z"/><path id="path16311" d="m9.5 17a.5.5 0 0 0 -.5.5.5.5 0 0 0 .5.5h3a.5.5 0 0 0 .5-.5.5.5 0 0 0 -.5-.5z"/><path id="path16314" d="m9.5 15a.5.5 0 0 0 -.5.5.5.5 0 0 0 .5.5h5a.5.5 0 0 0 .5-.5.5.5 0 0 0 -.5-.5z"/></g></svg>