<svg id="Layer_1" enable-background="new 0 0 512 512" height="512" viewBox="0 0 512 512" width="512" xmlns="http://www.w3.org/2000/svg"><g><path d="m282.6 432.2c-5.3 0-10.6-.9-15.8-2.6s-9.8-4.3-13.8-7.8-7.3-7.9-9.8-13.4-3.8-11.9-3.8-19.4v-80.4c0-13.1-3.9-23.5-11.8-31.4-5.9-5.9-13.4-9.6-22.6-11.3-5.8-1-10-6.2-10-12.1 0-5.9 4.2-11.1 10.1-12.2 9-1.6 16.4-5.2 22.3-10.8 8-7.6 12-18.2 12-31.8v-76.4c0-7.5 1.3-13.9 3.8-19.4s5.8-9.9 9.8-13.4 8.5-6 13.6-7.6 10.3-2.4 15.6-2.4h23.4c6.3 0 11.4 5.1 11.4 11.4 0 6.3-5.1 11.4-11.4 11.4h-15c-9.3 0-15.5 2.9-18.4 8.6s-4.4 13.4-4.4 23v70c0 14.7-3.7 25.7-11.2 33s-17.1 12.5-28.8 15.4v.8c11.7 3.5 21.3 9.1 28.8 17s11.2 19.3 11.2 34.2v74.8c0 9.9 1.4 17.3 4.2 22.4s8.9 7.6 18.2 7.6h15.4c6.3 0 11.4 5.1 11.4 11.4 0 6.3-5.1 11.4-11.4 11.4z"/></g></svg>