<svg id="a" height="512" viewBox="0 0 512 512" width="512" xmlns="http://www.w3.org/2000/svg"><path d="m495.5747 165.4414c-.0461-.1487-40.1899-96.5186-40.1899-96.5186-1.2422-2.981-4.1553-4.9229-7.3848-4.9229h-384c-3.2295 0-6.1426 1.9419-7.3848 4.9229l-39.9726 95.9344c-.4128.9651-.6426 2.0269-.6426 3.1428v48c0 4.4185 3.582 8 8 8h16v216c0 4.4185 3.582 8 8 8h48c4.418 0 8-3.5815 8-8v-24h24c4.418 0 8-3.5815 8-8v-24h240v24c0 4.4185 3.582 8 8 8h24v24c0 4.4185 3.582 8 8 8h48c4.418 0 8-3.5815 8-8v-216h16c4.418 0 8-3.5815 8-8v-48c0-.8959-.1538-1.7544-.4253-2.5586zm-439.5747-53.4414h400l6.6667 16h-413.3334zm-13.3333 32h426.6666l6.6665 16h-439.9996zm26.6663-64h373.334l6.6665 16h-386.667zm50.667 320h-16v-16h16zm272 0v-16h16v16zm64 32h-32v-56c0-4.4185-3.582-8-8-8h-320c-4.418 0-8 3.5815-8 8 0 .2368.0154.47.0354.7017-.02.2317-.0354.4648-.0354.7017v54.5967h-32v-208.0001h32v120c0 4.4185 3.582 8 8 8h320c4.418 0 8-3.5815 8-8v-120h32zm-336-208v112h-16v-112zm256 0v112h-240v-112zm32 0v112h-16v-112zm72-16h-448v-32h448z"/></svg>