<svg viewBox="0 0 24 24" xmlns="http://www.w3.org/2000/svg"><path d="m6.5 4a.5.5 0 0 0 0-1 3.50424 3.50424 0 0 0 -3.5 3.5v3a.49971.49971 0 0 0 .5.5h3a.49971.49971 0 0 0 .5-.5v-3a.49971.49971 0 0 0 -.5-.5h-2.4494a2.504 2.504 0 0 1 2.4494-2z"/><path d="m12 6.5a.49971.49971 0 0 0 -.5-.5h-2.4494a2.504 2.504 0 0 1 2.4494-2 .5.5 0 0 0 0-1 3.50424 3.50424 0 0 0 -3.5 3.5v3a.49971.49971 0 0 0 .5.5h3a.49971.49971 0 0 0 .5-.5z"/><path d="m20.5 14h-3a.49971.49971 0 0 0 -.5.5v3a.49971.49971 0 0 0 .5.5h2.4494a2.504 2.504 0 0 1 -2.4494 2 .5.5 0 0 0 0 1 3.50424 3.50424 0 0 0 3.5-3.5v-3a.49971.49971 0 0 0 -.5-.5z"/><path d="m15.5 14h-3a.49971.49971 0 0 0 -.5.5v3a.49971.49971 0 0 0 .5.5h2.4494a2.504 2.504 0 0 1 -2.4494 2 .5.5 0 0 0 0 1 3.50424 3.50424 0 0 0 3.5-3.5v-3a.49971.49971 0 0 0 -.5-.5z"/></svg>