<svg id="&#x421;&#x43B;&#x43E;&#x439;_1" enable-background="new 0 0 4000 4000" viewBox="0 0 4000 4000" xmlns="http://www.w3.org/2000/svg"><g><path d="m925.925 3327.159c-25.396-9.73-48.737-20.105-70.264-31.222l3.105 31.045z" fill="#ffe97d"/><path d="m3282.486 1613.947c-.183-.164-.361-.329-.539-.498l-32.534-30.978c-112.934 278.017-300.176 498.304-581.177 694.225-4.103 2.859-8.878 4.29-13.654 4.29s-9.552-1.431-13.654-4.29c-366.381-255.453-573.397-552.311-664.081-964.589l-1167.24-.617c-38.976 0-76.337 16.586-102.491 45.503-26.154 28.92-38.914 67.757-35.009 106.555l48.216 478.866 8.39 83.909c41.369-52.053 95.797-93.93 160.4-122.136 108.614-47.542 226.135-47.994 330.901-1.277 103.987 46.376 189.592 136.795 241.035 254.602l17.617 39.991c5.988 13.748 6.248 28.898.774 42.747-5.473 13.837-16.021 24.709-29.708 30.608l-43.618 19.036c-13.395 5.966-28.501 6.327-42.358.943-13.943-5.416-24.913-15.951-30.887-29.665l-17.478-40.042c-70.133-160.439-222.672-232.469-362.653-171.287-140.039 61.204-190.886 222.085-120.897 382.541l15.939 36.317h643.097c48.225 0 87.461 39.236 87.461 87.464v329.518c0 148.225-41.756 258.907-127.655 338.37-45.255 41.862-102.354 75.671-177.035 104.021l143.802.377h1725.703l184.542-1595.553c5.152-44.53-11.749-88.999-45.209-118.951zm-918.043 517.732c0 13.185-10.692 23.875-23.875 23.875h-674.888c-13.183 0-23.875-10.689-23.875-23.875s10.692-23.875 23.875-23.875h674.888c13.183 0 23.875 10.69 23.875 23.875zm-200.644-239.717c0 13.185-10.692 23.875-23.875 23.875h-446.522c-13.183 0-23.875-10.689-23.875-23.875s10.692-23.875 23.875-23.875h446.522c13.183.001 23.875 10.69 23.875 23.875zm-977.73-313.151c-70.205 0-129.227 52.59-137.293 122.328l-10.692 92.442c-1.409 12.166-11.73 21.131-23.687 21.133-.914 0-1.837-.053-2.77-.161-13.101-1.515-22.489-13.361-20.974-26.46l10.692-92.439c10.85-93.832 90.265-164.592 184.725-164.592h779.765c13.183 0 23.875 10.689 23.875 23.875 0 13.185-10.692 23.875-23.875 23.875h-779.766zm1718.229 816.457h-1267.802c-13.183 0-23.875-10.689-23.875-23.875s10.692-23.875 23.875-23.875h1267.802c13.183 0 23.875 10.689 23.875 23.875s-10.692 23.875-23.875 23.875z" fill="#ffe97d"/><path d="m3314.619 1578.628-46.586-44.358c51.572-140.501 85.34-295.505 103.579-469.076 3.573-34.04-19.7-65.34-52.977-71.258-127.823-22.744-220.599-136.177-220.599-269.685.043-33.453-24.014-61.805-55.964-65.953l-144.93-18.815c-80.146-10.408-161.759-15.684-242.564-15.684-80.795 0-162.399 5.276-242.554 15.684l-144.93 18.815c-31.945 4.146-56.002 32.5-55.959 65.922 0 133.539-92.776 246.972-220.599 269.716-33.287 5.918-56.555 37.221-52.977 71.26 7.278 69.257 17.037 135.548 29.398 199.157l-188.743-.1v-201.661c0-65.761-53.501-119.26-119.257-119.26h-681.179c-65.761 0-119.262 53.499-119.262 119.26v201.175l-48.894-.026c-52.462 0-102.732 22.316-137.918 61.225-35.191 38.909-52.357 91.165-47.105 143.365l48.216 478.851 14.316 143.17c-9.257 17.836-17.281 36.446-23.867 55.812-34.531 101.524-29.288 217.636 14.413 329.21-31.682 13.16-54.029 44.404-54.029 80.791v329.518c0 148.225 41.756 258.907 127.655 338.37 16.194 14.979 33.902 28.927 53.386 41.966l8.715 87.156c1.217 12.18 11.451 21.465 23.692 21.499l2327.333 1.527c12.125 0 22.321-9.087 23.716-21.131l186.985-1616.686c6.909-59.785-15.705-119.478-60.511-159.756zm13.077 154.271-184.542 1595.553h-1725.703l-143.802-.377c74.681-28.35 131.78-62.158 177.035-104.021 85.898-79.463 127.655-190.145 127.655-338.37v-329.518c0-48.228-39.236-87.464-87.461-87.464h-643.097l-15.939-36.317c-69.988-160.456-19.142-321.337 120.897-382.541 139.981-61.182 292.521 10.848 362.653 171.287l17.478 40.042c5.973 13.714 16.944 24.25 30.887 29.665 13.856 5.384 28.963 5.024 42.358-.943l43.618-19.036c13.688-5.899 24.235-16.771 29.708-30.608 5.473-13.849 5.214-28.999-.774-42.747l-17.617-39.991c-51.443-117.807-137.048-208.226-241.035-254.602-104.766-46.717-222.287-46.265-330.901 1.277-64.603 28.205-119.031 70.082-160.4 122.136l-8.39-83.909-48.216-478.866c-3.905-38.798 8.854-77.635 35.009-106.555 26.154-28.917 63.515-45.503 102.491-45.503l1167.24.617c90.684 412.278 297.7 709.135 664.081 964.589 4.103 2.859 8.878 4.29 13.654 4.29s9.552-1.431 13.654-4.29c281-195.921 468.243-416.207 581.177-694.225l32.534 30.978c.178.168.356.334.539.498 33.459 29.951 50.36 74.42 45.209 118.951zm-2419.459 215.039c96.171-42.095 199.99-42.6 292.328-1.419 93.089 41.514 170.06 123.232 216.756 230.172l17.608 39.97c1.135 2.609.553 4.901.106 6.036-.543 1.378-1.717 3.244-4.3 4.36l-43.882 19.149c-2.357 1.051-4.463.647-5.81.125-1.15-.447-3.251-1.59-4.406-4.242l-17.492-40.071c-81.209-185.797-260.176-268.199-425.528-195.926-165.371 72.275-226.582 259.587-145.517 445.432l7.536 17.177h-69.191c-43.531-104.376-49.958-213.132-17.982-307.161 32.556-95.711 103.496-171.567 199.774-213.602zm-236.841 608.228c0-21.9 17.815-39.715 39.717-39.715h779.765c21.898 0 39.712 17.814 39.712 39.715v329.518c0 286.932-164.231 382.918-429.597 443.218-265.366-60.3-429.597-156.286-429.597-443.218zm254.529 770.993-67.159-.177-3.105-31.045c21.527 11.117 44.868 21.492 70.264 31.222zm-19.66-2264.567c0-39.431 32.08-71.51 71.513-71.51h681.179c39.429 0 71.508 32.08 71.508 71.51v201.149h-824.2zm1092.634-21.648c150.644-26.803 259.984-160.006 259.984-316.756-.014-9.662 6.026-17.459 14.356-18.541l144.93-18.815c78.121-10.143 157.661-15.285 236.408-15.285 78.756 0 158.301 5.141 236.417 15.285l144.93 18.815c8.335 1.082 14.376 8.878 14.361 18.572 0 156.719 109.34 289.921 259.984 316.724 8.739 1.556 14.823 10.016 13.852 19.26-55.108 524.458-255.617 874.642-669.54 1167.73-413.918-293.09-614.427-643.275-669.535-1167.733-.975-9.242 5.109-17.702 13.853-19.256z" fill="#330538"/><path d="m1989.708 1554.937c0-13.185-10.692-23.875-23.875-23.875h-779.765c-94.459 0-173.874 70.76-184.725 164.592l-10.692 92.439c-1.515 13.099 7.873 24.945 20.974 26.46.933.108 1.857.161 2.77.161 11.956-.002 22.278-8.967 23.687-21.133l10.692-92.442c8.066-69.738 67.088-122.328 137.293-122.328h779.765c13.185 0 23.876-10.689 23.876-23.874z" fill="#330538"/><path d="m1730.465 1062.592c0-39.431-32.08-71.51-71.508-71.51h-681.179c-39.433 0-71.513 32.08-71.513 71.51v201.149h824.2z" fill="#ffe97d"/><path d="m726.445 2468.702h69.191l-7.536-17.177c-81.065-185.845-19.854-373.157 145.517-445.432 165.352-72.273 344.319 10.129 425.528 195.926l17.492 40.071c1.154 2.652 3.256 3.795 4.406 4.242 1.347.522 3.453.926 5.81-.125l43.882-19.149c2.583-1.116 3.756-2.982 4.3-4.36.447-1.135 1.029-3.427-.106-6.036l-17.608-39.97c-46.696-106.94-123.667-188.659-216.756-230.172-92.338-41.182-196.157-40.677-292.328 1.419-96.277 42.035-167.218 117.891-199.774 213.603-31.976 94.028-25.549 202.784 17.982 307.16z" fill="#fff"/><path d="m1100.993 3328.901c265.366-60.3 429.597-156.286 429.597-443.218v-329.518c0-21.9-17.815-39.715-39.712-39.715h-779.765c-21.903 0-39.717 17.814-39.717 39.715v329.518c0 286.933 164.231 382.919 429.597 443.218zm0-683.865c69.454 0 125.962 56.505 125.962 125.959 0 36.711-15.992 71.299-43.396 95.094l20.412 206.526c1.539 15.609-3.617 31.228-14.15 42.85-10.528 11.625-25.568 18.291-41.251 18.291h-95.147c-15.684 0-30.723-6.666-41.251-18.291-10.533-11.622-15.689-27.241-14.15-42.85l20.407-206.526c-27.4-23.793-43.392-58.383-43.392-95.094-.001-69.454 56.502-125.959 125.956-125.959z" fill="#61caff"/><path d="m1056.952 2835.609c7.2 4.92 11.144 13.378 10.288 22.056l-21.701 219.644c-.303 3.04 1.13 5.125 2.01 6.096.88.972 2.818 2.602 5.872 2.602h95.147c3.054 0 4.992-1.63 5.872-2.602.88-.971 2.313-3.056 2.01-6.096l-21.705-219.644c-.856-8.679 3.088-17.136 10.288-22.056 21.398-14.626 34.172-38.779 34.172-64.614 0-43.125-35.086-78.21-78.213-78.21-43.122 0-78.208 35.086-78.208 78.21.001 25.838 12.775 49.991 34.168 64.614z" fill="#fff"/><g fill="#330538"><path d="m1018.428 2866.09-20.407 206.526c-1.539 15.609 3.617 31.228 14.15 42.85 10.528 11.625 25.567 18.291 41.251 18.291h95.147c15.684 0 30.723-6.666 41.251-18.291 10.533-11.622 15.689-27.241 14.15-42.85l-20.412-206.526c27.405-23.795 43.396-58.383 43.396-95.094 0-69.454-56.507-125.959-125.962-125.959s-125.957 56.505-125.957 125.959c.001 36.711 15.993 71.301 43.393 95.094zm82.565-173.305c43.127 0 78.213 35.086 78.213 78.21 0 25.834-12.774 49.988-34.172 64.614-7.2 4.92-11.144 13.378-10.288 22.056l21.705 219.644c.303 3.04-1.13 5.125-2.01 6.096-.88.972-2.818 2.602-5.872 2.602h-95.147c-3.054 0-4.992-1.63-5.872-2.602-.88-.971-2.313-3.056-2.01-6.096l21.701-219.644c.856-8.679-3.088-17.136-10.288-22.056-21.393-14.623-34.167-38.777-34.167-64.614-.001-43.124 35.085-78.21 78.207-78.21z"/><path d="m1669.528 1891.962c0 13.185 10.692 23.875 23.875 23.875h446.522c13.183 0 23.875-10.689 23.875-23.875s-10.692-23.875-23.875-23.875h-446.522c-13.183.001-23.875 10.69-23.875 23.875z"/><path d="m1641.806 2131.679c0 13.185 10.692 23.875 23.875 23.875h674.888c13.183 0 23.875-10.689 23.875-23.875s-10.692-23.875-23.875-23.875h-674.889c-13.183 0-23.874 10.69-23.874 23.875z"/><path d="m2904.298 2347.519h-1267.802c-13.183 0-23.875 10.689-23.875 23.875s10.692 23.875 23.875 23.875h1267.802c13.183 0 23.875-10.689 23.875-23.875s-10.692-23.875-23.875-23.875z"/></g><path d="m2654.583 2227.935c413.923-293.088 614.432-643.273 669.54-1167.73.971-9.244-5.113-17.704-13.852-19.26-150.644-26.803-259.984-160.006-259.984-316.724.015-9.694-6.026-17.49-14.361-18.572l-144.93-18.815c-78.116-10.143-157.661-15.285-236.417-15.285-78.747 0-158.287 5.141-236.408 15.285l-144.93 18.815c-8.33 1.082-14.371 8.878-14.356 18.541 0 156.75-109.34 289.952-259.984 316.756-8.744 1.554-14.828 10.014-13.851 19.257 55.105 524.457 255.615 874.641 669.533 1167.732zm-490.428-1086.137c109.715-59.316 192.646-162.904 227.539-284.2 2.626-9.141 10.432-15.85 19.864-17.076l26.12-3.398c71.725-9.306 144.705-14.025 216.91-14.025 72.234 0 145.205 4.723 216.891 14.034l26.087 3.381c9.436 1.222 17.247 7.933 19.878 17.081 34.859 121.284 117.81 224.879 227.577 284.219 8.931 4.829 13.832 14.782 12.211 24.81-57.964 358.75-200.259 617.258-461.383 838.186-8.59 7.255-17.329 14.489-26.212 21.705-4.381 3.562-9.72 5.346-15.054 5.346-5.329 0-10.653-1.777-15.04-5.331-8.72-7.073-17.281-14.171-25.697-21.277-.005-.005-.01-.007-.019-.012-261.437-220.998-403.885-479.643-461.883-838.636-1.621-10.025 3.279-19.978 12.211-24.807z" fill="#fff"/><path d="m2644.656 1968.775c3.285 2.775 6.594 5.545 9.927 8.318 3.506-2.915 6.988-5.832 10.441-8.749 247.806-209.66 384.681-454.727 442.352-792.938-109.066-63.883-192.232-167.992-231.233-289.522l-10.807-1.402c-69.661-9.047-140.563-13.635-210.749-13.635-70.161 0-141.068 4.583-210.758 13.625l-10.841 1.412c-39.02 121.525-122.181 225.642-231.189 289.505 57.705 338.436 194.733 583.645 442.857 793.386z" fill="#61caff"/><path d="m2613.827 2005.241c.01.005.014.007.019.012 8.417 7.106 16.978 14.205 25.697 21.277 4.386 3.554 9.71 5.331 15.04 5.331 5.334 0 10.672-1.784 15.054-5.346 8.883-7.217 17.622-14.45 26.212-21.705 261.124-220.928 403.419-479.436 461.383-838.186 1.621-10.028-3.28-19.981-12.211-24.81-109.768-59.34-192.718-162.935-227.577-284.219-2.631-9.148-10.441-15.859-19.878-17.081l-26.087-3.381c-71.686-9.311-144.656-14.034-216.891-14.034-72.205 0-145.185 4.718-216.91 14.025l-26.12 3.398c-9.432 1.226-17.238 7.936-19.864 17.076-34.893 121.296-117.824 224.884-227.539 284.2-8.931 4.829-13.832 14.782-12.211 24.808 57.997 358.993 200.446 617.637 461.883 838.635zm-412.028-829.851c109.008-63.863 192.17-167.98 231.189-289.505l10.841-1.412c69.69-9.042 140.597-13.625 210.758-13.625 70.186 0 141.088 4.588 210.749 13.635l10.807 1.402c39 121.53 122.167 225.639 231.233 289.522-57.671 338.211-194.546 583.278-442.352 792.938-3.453 2.917-6.935 5.834-10.441 8.749-3.333-2.773-6.642-5.543-9.927-8.318-248.124-209.742-385.152-454.951-442.857-793.386z" fill="#330538"/></g></svg>