<svg height="512pt" viewBox="0 0 512 512.00134" width="512pt" xmlns="http://www.w3.org/2000/svg"><path d="m179.117188 311.671875 21.210937 21.210937-40.519531 40.519532-21.210938-21.210938zm0 0" fill="#a8d3d8"/><path d="m200.328125 332.886719-40.515625 40.515625-10.605469-10.601563 40.515625-40.519531zm0 0" fill="#8ebac5"/><path d="m63.632812 512-63.632812-63.632812 127.992188-127.992188 63.632812 63.632812zm0 0" fill="#3e5959"/><path d="m191.628906 384.011719-127.992187 127.988281-31.816407-31.816406 127.992188-127.988282zm0 0" fill="#293939"/><path d="m317 390c-107.519531 0-195-87.480469-195-195s87.480469-195 195-195 195 87.480469 195 195-87.480469 195-195 195zm0 0" fill="#3e5959"/><path d="m317 390c107.519531 0 195-87.480469 195-195 0-53.761719-21.871094-102.511719-57.179688-137.820312l-275.640624 275.640624c35.3125 35.308594 84.0625 57.179688 137.820312 57.179688zm0 0" fill="#384949"/><path d="m317 30c-90.980469 0-165 74.019531-165 165s74.019531 165 165 165 165-74.019531 165-165-74.019531-165-165-165zm0 0" fill="#deecf1"/><path d="m317 360c90.980469 0 165-74.019531 165-165 0-45.492188-18.503906-86.742188-48.382812-116.617188l-233.234376 233.234376c29.875 29.878906 71.125 48.382812 116.617188 48.382812zm0 0" fill="#c6e2e7"/><path d="m418.699219 189.601562-68.699219-27.601562-15.296875-6 24.898437-99.898438-144.300781 144.296876 68.699219 27.601562 15.300781 6-24.898437 99.898438zm0 0" fill="#fdbf00"/><path d="m274.402344 333.898438 24.898437-99.898438-15.300781-6 66-66 68.699219 27.601562zm0 0" fill="#ff9f00"/></svg>