<svg id="Line_Color" height="512" viewBox="0 0 64 64" width="512" xmlns="http://www.w3.org/2000/svg"><g><path d="m39.34391 60 3.29101-7.89627 7.84224 3.41878-8.3439-20.74427-11.13326 4.47749z" fill="#3ba9fe"/><path d="m24.6561 60-3.29102-7.89627-7.84224 3.41878 8.3439-20.74427 11.13326 4.47749z" fill="#3ba9fe"/><g fill="#2786cc"><path d="m28.75 49.83997-.87 2.16003h-.34998c-1.04004 0-1.91003-.79999-2-1.83002l-.14001-1.75c-.07-.78998-.59002-1.46997-1.33001-1.71997-.82001-.27002-1.60999-.60004-2.37-.98004-.71002-.34998-1.56-.23999-2.15997.27002l-1.34003 1.13001c-.41998.35999-.95001.52002-1.47003.45996l.96002-2.39996c.73999.57001 1.78998.56 2.51001-.06l1.34003-1.13c.59998-.51001 1.44995-.62 2.15997-.27002.76001.38 1.54999.71002 2.37.98004.73999.25 1.26001.92999 1.33002 1.71997l.14001 1.75c.06995.76.54999 1.39001 1.21997 1.66998z"/><path d="m46.33002 45.20001-1.81 1.81c-.73999.73999-1.92004.78998-2.71002.10999l-1.34003-1.13c-.59997-.51002-1.44995-.62-2.15997-.27003-.54999.28003-1.12.52002-1.70001.75v-.04999c.07001-.78998.59003-1.46997 1.33002-1.71997.82001-.27002 1.60999-.60004 2.37-.98004.71002-.34998 1.56-.23999 2.15997.27002l1.34002 1.13001c.72003.62 1.77002.63 2.51001.06z"/></g><path d="m55 29.47225v-4.94451c0-1.04017-.79731-1.90669-1.83388-1.99309l-1.7511-.14595c-.7857-.06549-1.46599-.58488-1.71629-1.33251-.27339-.8166-.60105-1.60771-.97991-2.36946-.35123-.70619-.23825-1.55353.27121-2.15562l1.13414-1.34032c.67191-.79406.62297-1.97059-.11255-2.70611l-3.4963-3.4963c-.73552-.73552-1.91205-.78445-2.70611-.11255l-1.34033 1.13414c-.60209.50947-1.44942.62244-2.15562.27121-.76175-.37886-1.55286-.70653-2.36947-.97991-.74763-.2503-1.26703-.9306-1.33252-1.7163l-.14594-1.75109c-.08638-1.03657-.95291-1.83388-1.99308-1.83388h-4.94451c-1.04017 0-1.90669.79731-1.99309 1.83388l-.14595 1.7511c-.06549.7857-.58488 1.46599-1.33251 1.71629-.8166.27339-1.60771.60105-2.36946.97991-.70619.35123-1.55353.23825-2.15562-.27121l-1.34032-1.13414c-.79406-.6719-1.97059-.62297-2.70611.11255l-3.4963 3.4963c-.73552.73552-.78445 1.91205-.11255 2.70611l1.13414 1.34033c.50947.60209.62244 1.44942.27121 2.15562-.37886.76175-.70653 1.55286-.97991 2.36947-.2503.74764-.9306 1.26703-1.7163 1.33252l-1.75109.14595c-1.03657.08637-1.83388.9529-1.83388 1.99307v4.94451c0 1.04017.79731 1.90669 1.83388 1.99309l1.7511.14595c.7857.06549 1.46599.58488 1.71629 1.33251.27339.8166.60105 1.60771.97991 2.36946.35123.7062.23825 1.55353-.27121 2.15562l-1.13413 1.34031c-.67191.79406-.62297 1.9706.11256 2.70612l3.49629 3.49625c.73552.7355 1.91203.78444 2.70608.11256l1.34036-1.13413c.60209-.50945 1.44941-.62242 2.1556-.2712.76177.37887 1.55288.70654 2.36948.97993.74763.2503 1.26702.9306 1.33251 1.71629l.14595 1.75109c.08638 1.03658.95291 1.83389 1.99308 1.83389h4.94451c1.04017 0 1.90669-.79731 1.99309-1.83388l.14595-1.7511c.06548-.78569.58487-1.46599 1.3325-1.71629.8166-.27339 1.6077-.60106 2.36948-.97993.70618-.35122 1.55351-.23825 2.1556.2712l1.34035 1.13413c.79405.67189 1.97056.62295 2.70608-.11255l3.4963-3.49625c.73553-.73552.78447-1.91206.11256-2.70612l-1.13413-1.34032c-.50946-.60209-.62244-1.44942-.27121-2.15562.37886-.76175.70653-1.55286.97991-2.36947.2503-.74763.9306-1.26703 1.7163-1.33251l1.75109-.14595c1.03656-.08639 1.83387-.95292 1.83387-1.99309z" fill="#202933"/><g fill="#11171c"><path d="m13.99 12.48c-.74.74-.79 1.92-.11 2.71l1.13 1.34c.51.6.62 1.45.27 2.16-.27.55-.51 1.12-.73 1.7h.03c.79-.07 1.47-.59 1.72-1.33.27-.82.6-1.61.98-2.37.35-.71.24-1.56-.27-2.16l-1.13-1.34c-.68-.79-.63-1.97.11-2.71z"/><path d="m36.47229 48h-4.94452c-1.04022 0-1.90674-.7973-1.9931-1.83392l-.14594-1.75104c-.06549-.78571-.5849-1.466-1.33252-1.71631-.81659-.27338-1.60773-.60107-2.36951-.97992-.70618-.35126-1.55347-.23828-2.15558.27118l-1.34033 1.13409c-.79407.67194-1.97058.62299-2.70612-.11255l-3.49628-3.49622c-.73553-.73553-.78448-1.91205-.11255-2.70612l1.13409-1.34033c.50946-.60205.62244-1.4494.27124-2.15564-.37885-.76172-.70654-1.55286-.97992-2.36945-.25031-.74762-.9306-1.26703-1.71631-1.33252l-1.7511-.14594c-1.03654-.08634-1.83384-.95292-1.83384-1.99308v-4.94452c0-.00238.00067-.00458.00067-.00696l-.16681.01392c-1.03656.08636-1.83386.95288-1.83386 1.99304v4.94452c0 1.04016.7973 1.90674 1.83386 1.9931l1.7511.14594c.78571.06549 1.466.5849 1.71631 1.33252.27338.81659.60107 1.60773.97992 2.36945.3512.70624.23822 1.55359-.27124 2.15564l-1.13409 1.34033c-.67194.79407-.62299 1.97058.11255 2.70612l3.49628 3.49622c.73553.73553 1.91205.78448 2.70612.11255l1.34033-1.13409c.60211-.50946 1.4494-.62244 2.15558-.27118.76178.37885 1.55292.70654 2.36951.97992.74762.25031 1.26703.9306 1.33252 1.71631l.14594 1.75104c.08634 1.0366.95286 1.8339 1.99308 1.8339h4.94452c1.04016 0 1.90668-.7973 1.99304-1.83392l.01392-.16675c-.00238 0-.00458.00067-.00696.00067z"/><path d="m46.52 45.01c-.74.74-1.92.79-2.71.11l-1.34-1.13c-.6-.51-1.45-.62-2.16-.27-.55.27-1.12.51-1.7.73v-.04c.07-.78.59-1.46 1.33-1.71.82-.27 1.61-.6 2.37-.98.71-.35 1.56-.24 2.16.27l1.34 1.13c.79.68 1.97.63 2.71-.11z"/></g><circle cx="32" cy="27" fill="#ea9d29" r="14"/><path d="m33.5 39.5c-7.73199 0-14-6.26801-14-14 0-3.48407 1.28046-6.6637 3.38629-9.11371-2.98718 2.56751-4.88629 6.36579-4.88629 10.61371 0 7.73199 6.26801 14 14 14 4.24792 0 8.0462-1.89911 10.61371-4.88629-2.45001 2.10583-5.62964 3.38629-9.11371 3.38629z" fill="#ce7a15"/><circle cx="32" cy="27" fill="#f1c710" r="10"/><path d="m33.5 35.5c-5.52283 0-10-4.47717-10-10 0-2.37915.83423-4.56146 2.22162-6.2782-2.26831 1.83319-3.72162 4.63458-3.72162 7.7782 0 5.52283 4.47717 10 10 10 3.14362 0 5.94507-1.45343 7.77826-3.72174-1.71674 1.38745-3.89905 2.22174-6.27826 2.22174z" fill="#c9a305"/><path d="m32.35985 21.28343 1.17004 3.7281c.05326.16969.19766.28343.35985.28343h3.72858c.37526 0 .52447.53761.21402.77113l-2.9712 2.23488c-.14264.10729-.20244.30731-.14583.48769l1.14517 3.64886c.12046.38383-.27037.71598-.57387.48769l-3.0726-2.31116c-.12919-.09718-.29885-.09718-.42804 0l-3.0726 2.31116c-.3035.22829-.69433-.10386-.57387-.48769l1.14517-3.64886c.05661-.18039-.0032-.38041-.14583-.48769l-2.9712-2.23488c-.31045-.23352-.16124-.77113.21402-.77113h3.72858c.16219 0 .30659-.11374.35985-.28343l1.17004-3.7281c.11863-.37791.60112-.37791.71972 0z" fill="#ea9d29"/><g><path d="m53.24902 21.53809-1.75098-.14551c-.39551-.0332-.72949-.29004-.85156-.65234-.2832-.85059-.63086-1.69141-1.03223-2.49902-.17188-.34473-.11719-.76172.13965-1.06445l1.13379-1.34082c1-1.18164.92578-2.96387-.16895-4.05859l-3.49609-3.49609c-1.09472-1.09475-2.87695-1.16897-4.05859-.16897l-1.3418 1.13477c-.30176.25488-.71777.30957-1.06348.13867-.80566-.40039-1.64551-.74805-2.49805-1.0332-.36328-.12207-.62012-.45605-.65332-.85059l-.1455-1.75195c-.1289-1.54199-1.44238-2.75-2.98925-2.75h-4.94531c-1.54688 0-2.86035 1.20801-2.98926 2.75098l-.14551 1.75098c-.0332.39551-.29004.72949-.65234.85156-.85059.2832-1.69141.63086-2.49902 1.03223-.3457.1709-.76172.11621-1.06445-.13965l-1.34083-1.1338c-1.18164-.99902-2.96387-.9248-4.05859.16895l-3.49609 3.49609c-1.09473 1.09473-1.16895 2.87695-.16895 4.05859l1.13477 1.3418c.25586.30176.31055.71875.13867 1.06348-.40039.80566-.74805 1.64551-1.0332 2.49805-.12207.36328-.45605.62012-.85059.65332l-1.75196.14551c-1.54199.1289-2.75 1.44238-2.75 2.98925v4.94531c0 1.54688 1.20801 2.86035 2.75098 2.98926l1.75098.14551c.39551.0332.72949.29004.85156.65234.2832.85059.63086 1.69141 1.03223 2.49902.17188.34473.11719.76172-.13965 1.06445l-1.13379 1.34082c-1 1.18164-.92578 2.96387.16895 4.05859l3.21631 3.21631s-3.89162 9.67238-3.90572 9.70742c-.3297.81944.52214 1.63663 1.32711 1.29013l6.91895-3.01465s2.88603 6.93074 2.89937 6.96278c.33834.81252 1.52421.80128 1.85063-.01161l3.77924-9.38855c.05399.00302.10557.01553.16019.01553h4.94531c.05463 0 .1062-.01251.16022-.0155 0 0 3.76082 9.3428 3.77917 9.38838.32882.81686 1.51363.8216 1.85065.01189l2.89941-6.96289s6.88302 2.999 6.9188 3.01459c.81024.35303 1.65427-.47568 1.32729-1.28998 0 0-2.63705-6.55667-2.65034-6.58972-.48071-1.19522-2.33958-.45845-1.85552.74597l1.73926 4.3252s-5.60117-2.44046-5.61234-2.44533c-.50898-.22173-1.10837.02019-1.32223.53224 0 .00001-2.35156 5.64648-2.35156 5.64648l-2.87549-7.14362c.54767-.49603.91675-1.18878.98193-1.96869l.14551-1.75098c.0332-.39551.29004-.72949.65234-.85156.85059-.2832 1.69141-.63086 2.49902-1.03223.34473-.17188.76172-.11719 1.06445.13965l1.34082 1.13379c1.18262 1 2.96484.92676 4.05859-.16895l3.49609-3.49609c1.09473-1.09473 1.16895-2.87695.16895-4.05859l-1.13477-1.3418c-.25586-.30176-.31055-.71875-.13867-1.06348.40039-.80566.74805-1.64551 1.0332-2.49805.12207-.36328.45605-.62012.85059-.65332l1.75198-.1455c1.54199-.12891 2.75-1.44238 2.75-2.98926v-4.94531c0-1.54687-1.20801-2.86035-2.75098-2.98925zm-28.60449 35.82324s-2.34888-5.64005-2.35156-5.64648c-.21296-.51136-.81516-.75359-1.32227-.53223l-5.6123 2.44531 2.86243-7.11438c.89606.20471 1.87384.00085 2.61511-.62585l1.3418-1.13477c.30176-.25488.71777-.30957 1.06348-.13867.80566.40039 1.64551.74805 2.49805 1.0332.36328.12207.62012.45605.65332.85059l.1455 1.75195c.06519.77942.43427 1.47192.98187 1.96777zm29.35547-27.88867c0 .52441-.39453.95312-.91699.99707l-1.75098.14551c-1.19238.09863-2.20508.88867-2.58105 2.01074-.25586.76465-.56836 1.51953-.92773 2.24219-.52734 1.05957-.36914 2.33496.40332 3.24609l1.13379 1.34082c.33398.39453.30859.98828-.05566 1.35352l-3.49609 3.49609c-.36523.36328-.95996.38965-1.35352.05566l-1.33984-1.13281c-.91309-.77344-2.18848-.93164-3.24707-.4043-.72461.36035-1.47852.67188-2.24316.92676-1.12207.37695-1.91113 1.39062-2.00977 2.58203l-.14551 1.75c-.04396.52344-.47267.91797-.99708.91797h-4.94531c-.52441 0-.95312-.39453-.99707-.91699l-.14551-1.75098c-.09863-1.19238-.88867-2.20508-2.01074-2.58105-.76463-.25585-1.51949-.56834-2.24213-.92771-1.05772-.52599-2.34779-.35722-3.24615.40329l-1.34082 1.13379c-.39551.33398-.9873.30859-1.35352-.05566l-3.49609-3.49609c-.36426-.36523-.38965-.95898-.05566-1.35352l1.13281-1.33984c.77344-.91211.93164-2.1875.4043-3.24707-.36035-.72461-.67188-1.47852-.92676-2.24316-.37695-1.12207-1.39062-1.91113-2.58203-2.00977l-1.75-.14551c-.52345-.04395-.91798-.47266-.91798-.99707v-4.94531c0-.52441.39453-.95312.91699-.99707l1.75098-.14551c1.19238-.09863 2.20508-.88867 2.58105-2.01074.25586-.76465.56836-1.51953.92773-2.24219.52734-1.05957.36914-2.33496-.40332-3.24609l-1.13379-1.34082c-.33398-.39453-.30859-.98828.05566-1.35352l3.49609-3.49609c.36523-.36328.95996-.38965 1.35352-.05566l1.33984 1.13281c.91211.77246 2.18652.93164 3.24707.4043.72461-.36035 1.47852-.67188 2.24316-.92676 1.12207-.37695 1.91113-1.39062 2.00977-2.58203l.14551-1.75c.04396-.52345.47267-.91798.99708-.91798h4.94531c.52441 0 .95312.39453.99707.91699l.14551 1.75098c.09863 1.19238.88867 2.20508 2.01074 2.58105.76465.25586 1.51953.56836 2.24219.92773 1.06055.52832 2.33496.36816 3.24609-.40332l1.34082-1.13379c.39648-.33398.98828-.30664 1.35352.05566l3.49609 3.49609c.36426.36523.38965.95898.05566 1.35352l-1.13281 1.33984c-.77344.91211-.93164 2.1875-.4043 3.24707.36035.72461.67188 1.47852.92676 2.24316.37695 1.12207 1.39062 1.91113 2.58203 2.00977l1.75.14551c.52345.04396.91798.47267.91798.99708z"/><path d="m32 12c-3.25961 0-6.36397 1.03311-8.97815 2.98899-.99427.7439.15394 2.3829 1.1969 1.60184 2.2666-1.69532 4.95703-2.59083 7.78125-2.59083 7.16797 0 13 5.83203 13 13s-5.83203 13-13 13-13-5.83203-13-13c0-2.82414.89546-5.5145 2.59068-7.78106.73431-.98179-.80624-2.26319-1.60142-1.19746-1.95606 2.61426-2.98926 5.71875-2.98926 8.97852 0 8.27148 6.72852 15 15 15s15-6.72852 15-15-6.72852-15-15-15z"/><path d="m32 38c6.06543 0 11-4.93457 11-11s-4.93457-11-11-11-11 4.93457-11 11 4.93457 11 11 11zm0-20c4.96289 0 9 4.03711 9 9s-4.03711 9-9 9-9-4.03711-9-9 4.03711-9 9-9z"/><path d="m25.56641 26.86523 2.64941 1.99219-1.03027 3.28125c-.18945.60447.02538 1.25191.53412 1.61129.47996.33904 1.12745.32606 1.59478-.02633l2.68555-2.01855 2.68457 2.01855c.47363.35645 1.11426.36523 1.5957.02637.50879-.35938.72363-1.00684.53418-1.6123l-1.03027-3.28027 2.64844-1.99121c.49219-.37012.68945-1.01855.49121-1.61328-.19434-.58203-.70703-.95801-1.30566-.95801h-3.26465l-1.04004-3.31152c-.18457-.5879-.71192-.98341-1.31348-.98341s-1.12988.39551-1.31348.9834l-1.04004 3.31152h-3.26465c-.59863 0-1.11133.37598-1.30566.95801-.19824.59473-.00097 1.24316.49024 1.6123zm4.54394-.57031c.60352 0 1.13086-.39648 1.31348-.9834l.57617-1.83496.5752 1.83203c.18359.58984.71094.98633 1.31445.98633h1.97461l-1.60449 1.20703c-.47949.36133-.68066.99707-.49902 1.58691l.59082 1.88184s-1.53418-1.15332-1.53431-1.15342c-.48177-.36606-1.14884-.36985-1.63171-.00186l-1.53711 1.15527.59277-1.88672c.17969-.58496-.02148-1.2207-.50098-1.58203l-1.60449-1.20703h1.97461z"/></g></g></svg>