<svg class="svg-icon" style="width: 1em; height: 1em;vertical-align: middle;fill: currentColor;overflow: hidden;" viewBox="0 0 1024 1024" version="1.1" xmlns="http://www.w3.org/2000/svg"><path d="M773.7 267.3h-12.6c-21.7 0-39.4 22.5-39.4 50.1v391.7c0 27.5 17.7 50.1 39.4 50.1h12.6c21.7 0 39.4-22.5 39.4-50V317.3c0-27.5-17.7-50-39.4-50z" fill="#2E97FF" /><path d="M816 65.5H188.8c-14.4 0-26 11.7-26 26v843.4c0 14.4 11.7 26 26 26H816c14.4 0 26-11.7 26-26V91.5c0.1-14.4-11.6-26-26-26zM191.7 932.1v-25.7h26.5a6.7 6.7 0 0 0 0-13.4h-26.5v-23.4h27.5a6.7 6.7 0 0 0 0-13.4h-27.5v-23.4h27.5a6.7 6.7 0 0 0 0-13.4h-27.5V796h27.5a6.7 6.7 0 0 0 0-13.4h-27.5v-23.4h27.5a6.7 6.7 0 0 0 0-13.4h-27.5V722h27.5a6.7 6.7 0 0 0 0-13.4h-27.5v-23.4h27.5a6.7 6.7 0 0 0 0-13.4h-27.5v-23.4h27.5a6.7 6.7 0 0 0 0-13.4h-27.5v-23.4h27.5a6.7 6.7 0 0 0 0-13.4h-27.5v-23.4h27.5a6.7 6.7 0 0 0 0-13.4h-27.5V538h27.5a6.7 6.7 0 0 0 0-13.4h-27.5v-23.4h27.5a6.7 6.7 0 0 0 0-13.4h-27.5v-23.4h27.5a6.7 6.7 0 0 0 0-13.4h-27.5v-24h27.5a6.7 6.7 0 0 0 0-13.4h-27.5v-23.4h27.5a6.7 6.7 0 0 0 0-13.4h-27.5v-23.4h27.5a6.7 6.7 0 0 0 0-13.4h-27.5v-23.4h27.5a6.7 6.7 0 0 0 0-13.4h-27.5v-23.4h27.5a6.7 6.7 0 0 0 0-13.4h-27.5V243h27.5a6.7 6.7 0 0 0 0-13.4h-27.5v-23.4h27.5a6.7 6.7 0 0 0 0-13.4h-27.5V169h27.5a6.7 6.7 0 0 0 0-13.4h-27.5v-23.4h30.1a6.7 6.7 0 0 0 0-13.4h-30.1V94.4h621.4V932H191.7z" fill="" /><path d="M338.9 595.6H595c8 0 14.5-5.1 14.5-11.3S603 573 595 573H338.9c-8 0-14.5 5.1-14.5 11.3s6.5 11.3 14.5 11.3zM595.2 669H339.1c-8 0-14.5 5-14.5 11.2s6.5 11.2 14.5 11.2h256.1c8 0 14.5-5 14.5-11.2s-6.5-11.2-14.5-11.2z" fill="" /></svg>