<svg id="Capa_1" enable-background="new 0 0 512 512" viewBox="0 0 512 512" xmlns="http://www.w3.org/2000/svg"><g><g><path d="m482 386.343h-452c-11.046 0-20-8.954-20-20v-280.931c0-11.046 8.954-20 20-20h452c11.046 0 20 8.954 20 20v280.932c0 11.045-8.954 19.999-20 19.999z" fill="#fff"/><path d="m229.43 386.343c-39.411-59.696-62.359-131.217-62.359-208.102 0-39.299 6-77.195 17.125-112.83h-154.196c-11.046 0-20 8.954-20 20v280.932c0 11.046 8.954 20 20 20z" fill="#d2dcfd"/><path d="m202.511 446.588 13.372-60.245h80.234l13.372 60.245z" fill="#6864f7"/><path d="m199.697 332.123-189.697 34.22c0 11.046 8.954 20 20 20h452c11.046 0 20-8.954 20-20v-34.22z" fill="#bc9af4"/><path d="m229.43 386.343c-11.321-17.149-21.283-35.273-29.733-54.22h-189.697v34.22c0 11.046 8.954 20 20 20z" fill="#6864f7"/></g><g><path d="m481.918 55.412h-451.836c-16.587 0-30.082 13.494-30.082 30.081v280.769c0 16.587 13.495 30.082 30.082 30.082h173.337l-8.933 40.245h-75.309c-5.522 0-10 4.477-10 10s4.478 10 10 10h273.645c5.522 0 10-4.477 10-10s-4.478-10-10-10h-75.309l-8.933-40.245h173.337c16.587 0 30.082-13.495 30.082-30.082v-280.769c.001-16.587-13.494-30.081-30.081-30.081zm-184.892 381.176h-82.052l8.932-40.245h64.188zm194.974-70.326c0 5.559-4.522 10.082-10.082 10.082h-451.836c-5.56 0-10.082-4.522-10.082-10.082v-280.769c0-5.559 4.522-10.082 10.082-10.082h451.836c5.56 0 10.082 4.522 10.082 10.082z" fill="#052a75"/><g fill="#fd6050"><path d="m457.82 233.764c-5.522 0-10 4.477-10 10v20.037l-44.42-44.42c-3.905-3.905-10.237-3.905-14.143 0-3.905 3.905-3.905 10.237 0 14.142l44.42 44.421h-20.038c-5.522 0-10 4.477-10 10s4.478 10 10 10h44.18c5.522 0 10-4.477 10-10v-44.18c.001-5.523-4.476-10-9.999-10z"/><path d="m122.742 164.012-44.421-44.421h20.038c5.522 0 10-4.477 10-10s-4.478-10-10-10h-44.179c-5.522 0-10 4.477-10 10v44.18c0 5.523 4.478 10 10 10s10-4.477 10-10v-20.037l44.42 44.42c1.953 1.953 4.512 2.929 7.071 2.929s5.119-.977 7.071-2.929c3.905-3.905 3.905-10.237 0-14.142z"/><path d="m122.742 219.38c-3.906-3.905-10.236-3.905-14.143 0l-44.42 44.42v-20.037c0-5.523-4.478-10-10-10s-10 4.477-10 10v44.18c0 5.523 4.478 10 10 10h44.18c5.522 0 10-4.477 10-10s-4.478-10-10-10h-20.037l44.421-44.421c3.904-3.904 3.904-10.236-.001-14.142z"/><path d="m457.82 99.591h-44.18c-5.522 0-10 4.477-10 10s4.478 10 10 10h20.038l-44.42 44.421c-3.905 3.905-3.905 10.237 0 14.142 1.953 1.953 4.512 2.929 7.071 2.929s5.118-.977 7.071-2.929l44.42-44.42v20.037c0 5.523 4.478 10 10 10s10-4.477 10-10v-44.18c0-5.523-4.477-10-10-10z"/></g></g></g><g/><g/><g/><g/><g/><g/><g/><g/><g/><g/><g/><g/><g/><g/><g/></svg>