<svg enable-background="new 0 0 512 512" viewBox="0 0 512 512" xmlns="http://www.w3.org/2000/svg"><g id="_x30_7_Sheild"><g><path d="m448.108 97.973v182.41c0 93.972-97.094 177.851-155.797 209.175-20.886 11.145-45.726 11.439-67.06 1.178-70.316-33.819-161.355-118.507-161.355-210.353v-182.489c0-46.409 37.622-84.031 84.031-84.031h216.07c46.453 0 84.111 37.657 84.111 84.11z" fill="#ff896f"/><path d="m257.524 419.564c-54.979-27.089-115.511-90.364-115.511-139.183v-188.402h227.903c.042 0 .076.034.076.076v188.326c-.001 50.955-64.656 112.926-112.468 139.183z" fill="#ebf5fe"/><path d="m448.143 97.979v182.401c0 93.974-97.099 177.871-155.842 209.195-20.857 11.093-45.698 11.405-67.024 1.172-35.309-16.951-75.773-46.713-107.41-83.819 145.14-2.266 262.002-120.612 262.002-266.299 0-45.932-11.639-89.131-32.106-126.783h16.248c46.402.002 84.132 37.654 84.132 84.133z" opacity=".15"/><path d="m299.488 206.118c0 18.314-11.313 34.011-27.364 40.375v33.799c0 8.909-7.212 16.122-16.121 16.122-8.854 0-16.122-7.254-16.122-16.122v-33.799c-16.051-6.364-27.364-22.061-27.364-40.375 0-24.041 19.445-43.486 43.486-43.486 24.04 0 43.485 19.445 43.485 43.486z" fill="#1c85e8"/><g fill="#002245"><path d="m455.918 97.973c0-50.684-41.236-91.92-91.92-91.92h-216.072c-50.642 0-91.844 41.198-91.844 91.84v182.49c0 100.289 101.685 186.568 165.78 217.395 11.34 5.454 23.633 8.17 35.873 8.17 13.228 0 26.402-3.173 38.253-9.498 64.286-34.302 159.929-120.153 159.929-216.067v-182.41zm-15.624 182.41c0 88.411-93.022 170.994-151.659 202.282-18.446 9.833-40.885 10.222-59.999 1.03-60.673-29.179-156.93-110.179-156.93-203.312v-182.49c0-42.026 34.191-76.217 76.221-76.217h216.071c42.071 0 76.297 34.225 76.297 76.297v182.41z"/><path d="m369.913 84.169h-227.903c-4.314 0-7.812 3.498-7.812 7.812v188.402c0 52.118 61.982 117.667 119.871 146.19 1.091.538 2.27.805 3.452.805 1.297 0 2.59-.324 3.761-.965 46.988-25.807 116.518-90.063 116.518-146.029v-188.327c.001-4.314-3.573-7.888-7.887-7.888zm-7.735 196.214c0 46.267-59.747 104.282-104.851 130.326-51.599-26.845-107.505-85.76-107.505-130.326v-180.591h212.356z"/><path d="m232.069 251.497v28.794c0 13.197 10.737 23.935 23.935 23.935 13.194 0 23.931-10.737 23.931-23.935v-28.794c16.783-8.773 27.364-26.048 27.364-45.378 0-28.287-23.012-51.298-51.294-51.298-28.287 0-51.298 23.012-51.298 51.298-.001 19.331 10.579 36.605 27.362 45.378zm23.935-81.053c19.67 0 35.671 16.005 35.671 35.675 0 14.715-8.803 27.711-22.432 33.112-2.975 1.182-4.932 4.058-4.932 7.262v33.798c0 4.585-3.727 8.311-8.307 8.311-4.581 0-8.311-3.727-8.311-8.311v-33.798c0-3.204-1.957-6.08-4.932-7.262-13.628-5.401-22.432-18.396-22.432-33.112 0-19.67 16.005-35.675 35.675-35.675z"/></g></g></g><g id="Layer_1"/></svg>