<svg clip-rule="evenodd" fill-rule="evenodd" height="512" stroke-linejoin="round" stroke-miterlimit="2" viewBox="0 0 32 32" width="512" xmlns="http://www.w3.org/2000/svg"><g transform="translate(-333 -148)"><g id="Pink-Grey"><g transform="matrix(1.42 0 0 -1.119 -149.172 344.732)"><path d="m350.163 155.506c.131-.25.351-.4.587-.4s.456.15.587.4c0 0 2.118 4.051 3.389 7.696.582 1.67.978 3.268.978 4.404 0 3.47-2.22 6.288-4.954 6.288s-4.954-2.818-4.954-6.288c0-1.136.396-2.734.978-4.404 1.271-3.645 3.389-7.696 3.389-7.696zm.587 2.154c-.699 1.423-1.874 3.93-2.688 6.265-.489 1.401-.858 2.728-.858 3.681 0 2.484 1.589 4.5 3.546 4.5s3.546-2.016 3.546-4.5c0-.953-.369-2.28-.858-3.681-.814-2.335-1.989-4.842-2.688-6.265z" fill="#404652"/></g><g transform="translate(0 .58)"><path d="m354.533 167.181c.293.402.467.846.467 1.319 0 .719-.396 1.366-1.011 1.905-1.123.985-2.945 1.595-4.989 1.595s-3.866-.61-4.989-1.595c-.615-.539-1.011-1.186-1.011-1.905 0-.404.127-.787.347-1.141.292-.468.148-1.085-.321-1.377-.468-.292-1.085-.148-1.377.321-.423.679-.649 1.421-.649 2.197 0 1.268.608 2.458 1.692 3.409 1.425 1.249 3.715 2.091 6.308 2.091s4.883-.842 6.308-2.091c1.084-.951 1.692-2.141 1.692-3.409 0-.892-.299-1.741-.852-2.498-.326-.446-.952-.544-1.398-.218-.445.325-.543.952-.217 1.397z" fill="#f9598e"/></g><g transform="translate(0 .58)"><path d="m358.331 164.664c1.207 1.086 1.948 2.4 1.948 3.836 0 1.468-.774 2.808-2.03 3.909-2.084 1.827-5.457 2.985-9.249 2.985s-7.165-1.158-9.249-2.985c-1.256-1.101-2.03-2.441-2.03-3.909 0-1.436.741-2.75 1.948-3.836.41-.37.443-1.002.074-1.413-.369-.41-1.002-.443-1.412-.074-1.663 1.497-2.61 3.345-2.61 5.323 0 2.018.986 3.9 2.711 5.413 2.386 2.092 6.227 3.481 10.568 3.481s8.182-1.389 10.568-3.481c1.725-1.513 2.711-3.395 2.711-5.413 0-1.978-.947-3.826-2.61-5.323-.41-.369-1.043-.336-1.412.074s-.336 1.043.074 1.413z" fill="#404652"/></g><g transform="matrix(.966 0 0 .966 11.799 5.681)"><circle cx="349" cy="157.236" fill="#f9598e" r="3"/></g></g></g></svg>