<svg id="Layer_2" viewBox="0 0 64 64" xmlns="http://www.w3.org/2000/svg" xmlns:xlink="http://www.w3.org/1999/xlink" data-name="Layer 2"><linearGradient id="New_Gradient_Swatch" gradientUnits="userSpaceOnUse" x1="32" x2="32" y1="-.92" y2="62.47" data-name="New Gradient Swatch"><stop offset="0" stop-color="#c2ccff"/><stop offset="1" stop-color="#5f7eff"/></linearGradient><g fill="url(#New_Gradient_Swatch)"><path d="m54.44 16.01v5.53h-2.59l-.34-7.31h1.19c.96.02 1.75.82 1.75 1.78z"/><path d="m59.53 6.66v4.59c0 .99-.8 1.78-1.78 1.78-1.98.01-43.35-.01-46.45 0h-5.06c-.99 0-1.78-.8-1.78-1.78v-4.59c0-.99.8-1.78 1.78-1.78h51.5c.99 0 1.78.8 1.78 1.78z"/><path d="m50.83 25.17-2.68-5.78c-.23-.45-.89-.44-1.08.01l-2.64 6.01v-11.18h5.89c.1 2.16.42 8.9.51 10.95z"/><path d="m43.24 14.23v7.31h-33.68v-5.53c0-.96.78-1.76 1.75-1.78h31.94z"/><path d="m51.91 22.73.25 5.41c.05.63-.88.87-1.13.27l-3.41-7.33-3.24 7.38c-.24.58-1.15.39-1.14-.24v-5.51h-42.24v19.92h62v-19.92h-11.09zm-37.22 14.58c-4.54-.12-4.54-6.74 0-6.86 4.52.11 4.52 6.74 0 6.86zm25.21-5.83-4.31 3.13 1.65 5.07c.07.25-.01.52-.23.66-.2.15-.49.15-.69 0l-4.32-3.13-4.32 3.13c-.2.15-.49.15-.69 0-.21-.14-.3-.42-.23-.66l1.65-5.07-4.31-3.13c-.21-.15-.3-.43-.23-.66.08-.25.31-.42.57-.42h5.34l1.64-5.07c.17-.5.97-.5 1.14 0l1.64 5.07h5.34c.26 0 .49.17.57.42.07.24-.01.51-.23.66zm9.43 5.83c-4.54-.12-4.54-6.74 0-6.86 4.52.11 4.52 6.74 0 6.86z"/><path d="m9.56 43.84v13.5c0 .99.8 1.78 1.78 1.78h41.32c.99 0 1.78-.8 1.78-1.78v-13.5zm20.24 10.28h-15.11c-.78 0-.77-1.19 0-1.19h15.11c.78 0 .77 1.19 0 1.19zm0-5.47h-15.11c-.78-.01-.77-1.19 0-1.19h15.11c.78 0 .77 1.19 0 1.19z"/><path d="m34.32 34.56 1.22 3.75-3.19-2.32c-.2-.15-.49-.15-.69 0l-3.19 2.32 1.22-3.75c.07-.24-.01-.51-.23-.66l-3.18-2.32h3.94c.26 0 .49-.17.56-.4l1.22-3.75 1.22 3.75c.07.24.3.4.56.4h3.94l-3.18 2.32c-.21.15-.3.43-.23.66z"/><path d="m14.69 36.12c-2.97-.07-2.97-4.42 0-4.49 2.96.07 2.96 4.42 0 4.49z"/><path d="m49.32 36.12c-2.97-.07-2.97-4.42 0-4.49 2.96.07 2.96 4.42 0 4.49z"/></g></svg>