<svg id="Capa_1" enable-background="new 0 0 511.996 511.996" height="512" viewBox="0 0 511.996 511.996" width="512" xmlns="http://www.w3.org/2000/svg"><g><g><path d="m386.123 511.996h-260.25c-9.941 0-18-8.059-18-18v-475.996c0-9.941 8.059-18 18-18h260.25c9.941 0 18 8.059 18 18v475.996c0 9.941-8.059 18-18 18z" fill="#695e66"/></g><g><path d="m386.119 0h-20.365v455.622c0 9.944-8.061 18.004-18.004 18.004h-239.877v20.365c0 9.944 8.061 18.004 18.004 18.004h260.241c9.944 0 18.004-8.061 18.004-18.004v-475.987c.001-9.943-8.06-18.004-18.003-18.004z" fill="#453e43"/></g><g><path d="m363.582 421.139h-216.69c-4.418 0-8-3.582-8-8v-350.828c0-4.418 3.582-8 8-8h216.69c4.418 0 8 3.582 8 8v350.829c0 4.418-3.582 7.999-8 7.999z" fill="#62d8f9"/></g><g><path d="m363.58 54.311h-13.746v337.078c0 4.42-3.583 8.002-8.002 8.002h-202.94v13.747c0 4.419 3.583 8.002 8.002 8.002h216.686c4.419 0 8.002-3.583 8.002-8.002v-350.825c0-4.42-3.583-8.002-8.002-8.002z" fill="#00bef7"/></g><g><circle cx="255.998" cy="465.819" fill="#453e43" r="14.347"/></g><g><path d="m219.783 155.446h-41.729c-3.511 0-6.358-2.847-6.358-6.358v-41.729c0-3.511 2.847-6.358 6.358-6.358h41.729c3.511 0 6.358 2.847 6.358 6.358v41.729c0 3.512-2.846 6.358-6.358 6.358z" fill="#fce25c"/></g><g><path d="m297.333 245.096h-41.729c-3.511 0-6.358-2.847-6.358-6.358v-41.728c0-3.511 2.847-6.358 6.358-6.358h41.729c3.511 0 6.358 2.847 6.358 6.358v41.729c0 3.511-2.846 6.357-6.358 6.357z" fill="#f1faff"/></g><g><path d="m219.783 245.16h-41.729c-3.511 0-6.358-2.847-6.358-6.358v-41.729c0-3.511 2.847-6.358 6.358-6.358h41.729c3.511 0 6.358 2.847 6.358 6.358v41.729c0 3.511-2.846 6.358-6.358 6.358z" fill="#fb636f"/></g><g><circle cx="276.469" cy="132.826" fill="#fa989e" r="27.222"/></g><g><circle cx="198.919" cy="306.586" fill="#e0dde2" r="27.222"/></g><g><path d="m270.08 385.622h-28.163c-4.144 0-7.502-3.359-7.502-7.502s3.358-7.502 7.502-7.502h28.163c4.144 0 7.502 3.359 7.502 7.502s-3.358 7.502-7.502 7.502z" fill="#f1faff"/></g><g><path d="m326.344 385.622h-28.163c-4.144 0-7.502-3.359-7.502-7.502s3.358-7.502 7.502-7.502h28.163c4.144 0 7.502 3.359 7.502 7.502s-3.359 7.502-7.502 7.502z" fill="#f1faff"/></g><g><path d="m213.001 385.622h-28.163c-4.144 0-7.502-3.359-7.502-7.502s3.358-7.502 7.502-7.502h28.163c4.144 0 7.502 3.359 7.502 7.502s-3.359 7.502-7.502 7.502z" fill="#f1faff"/></g></g></svg>